<?xml version="1.0" standalone="no"?>
<!DOCTYPE svg PUBLIC "-//W3C//DTD SVG 1.1//EN" "http://www.w3.org/Graphics/SVG/1.1/DTD/svg11.dtd" >
<svg>
<metadata>
Created by FontForge 20120731 at Sat May 16 04:48:17 2020
 By ffonts
Copyright (c)2019 by Kotak Kuning Studio. All rights reserved.
</metadata>
<defs>
<font id="Fruity" horiz-adv-x="463" >
  <font-face 
    font-family="Fruity Stories"
    font-weight="400"
    font-stretch="normal"
    units-per-em="1000"
    panose-1="0 0 0 0 0 0 0 0 0 0"
    ascent="720"
    descent="-280"
    x-height="338"
    cap-height="508"
    bbox="-217 -243 791 719"
    underline-thickness="50"
    underline-position="-125"
    unicode-range="U+000D-2212"
  />
<missing-glyph horiz-adv-x="801" 
d="M10 544h781v-544h-781v544zM60 450q-6 -4 -5.5 -11t5.5 -12q2 -2 12.5 -6t16.5 -12.5t6 -23.5v-245q1 -13 -18 -32.5t-20 -21.5v-12q0 -8 9 -8h153q8 0 8 8v5q0 6 -18.5 26t-18.5 34v64l12 8l48 -93q22 -43 55 -52q12 -2 16 -2q7 0 19 2q22 5 37 18t17 25q0 7 -7 5
q-1 0 -2.5 -0.5t-2.5 -0.5q-8 0 -17 7t-17.5 20.5t-13.5 23t-12.5 26.5t-8.5 19q-17 34 -62 34q9 5 25.5 16t21.5 14q13 9 25.5 16t18.5 10t10.5 6.5t6 6t1.5 6.5v5q0 9 -9 9h-76q-10 0 -10 -8q-1 -11 2 -14q9 -8 9 -14t-14 -16l-72 -47q0 40 0.5 108.5t0.5 76.5
q0 36 -7.5 49t-24.5 13t-49.5 -10.5t-49.5 -19.5zM413 450q-13 -8 -1 -23q2 -2 12.5 -6t17 -12.5t6.5 -23.5v-245q1 -13 -18 -32.5t-20 -21.5v-12q0 -8 9 -8h152q9 0 9 8v5q0 6 -18.5 26t-18.5 34v64l12 8l48 -93q28 -54 71 -54q28 0 49 15t23 30q0 7 -6 5q-1 0 -2.5 -0.5
t-2.5 -0.5q-9 0 -17.5 6.5t-17.5 20.5t-14 23.5t-12.5 27t-8.5 18.5q-17 34 -62 34q11 7 28.5 18t18.5 12q13 9 25.5 16t18.5 10t10.5 6.5t6 6t1.5 6.5v5q0 9 -8 9h-77q-9 0 -9 -8q-2 -11 1 -14q10 -10 10 -15t-14 -15l-72 -47v185q0 36 -7 49t-25 13t-50.5 -10.5
t-47.5 -19.5z" />
    <glyph glyph-name=".notdef" horiz-adv-x="801" 
d="M10 544h781v-544h-781v544zM60 450q-6 -4 -5.5 -11t5.5 -12q2 -2 12.5 -6t16.5 -12.5t6 -23.5v-245q1 -13 -18 -32.5t-20 -21.5v-12q0 -8 9 -8h153q8 0 8 8v5q0 6 -18.5 26t-18.5 34v64l12 8l48 -93q22 -43 55 -52q12 -2 16 -2q7 0 19 2q22 5 37 18t17 25q0 7 -7 5
q-1 0 -2.5 -0.5t-2.5 -0.5q-8 0 -17 7t-17.5 20.5t-13.5 23t-12.5 26.5t-8.5 19q-17 34 -62 34q9 5 25.5 16t21.5 14q13 9 25.5 16t18.5 10t10.5 6.5t6 6t1.5 6.5v5q0 9 -9 9h-76q-10 0 -10 -8q-1 -11 2 -14q9 -8 9 -14t-14 -16l-72 -47q0 40 0.5 108.5t0.5 76.5
q0 36 -7.5 49t-24.5 13t-49.5 -10.5t-49.5 -19.5zM413 450q-13 -8 -1 -23q2 -2 12.5 -6t17 -12.5t6.5 -23.5v-245q1 -13 -18 -32.5t-20 -21.5v-12q0 -8 9 -8h152q9 0 9 8v5q0 6 -18.5 26t-18.5 34v64l12 8l48 -93q28 -54 71 -54q28 0 49 15t23 30q0 7 -6 5q-1 0 -2.5 -0.5
t-2.5 -0.5q-9 0 -17.5 6.5t-17.5 20.5t-14 23.5t-12.5 27t-8.5 18.5q-17 34 -62 34q11 7 28.5 18t18.5 12q13 9 25.5 16t18.5 10t10.5 6.5t6 6t1.5 6.5v5q0 9 -8 9h-77q-9 0 -9 -8q-2 -11 1 -14q10 -10 10 -15t-14 -15l-72 -47v185q0 36 -7 49t-25 13t-50.5 -10.5
t-47.5 -19.5z" />
    <glyph glyph-name="uni0000" horiz-adv-x="0" 
 />
    <glyph glyph-name="uni0000" horiz-adv-x="0" 
 />
    <glyph glyph-name="uni000D" unicode="&#xd;" horiz-adv-x="250" 
 />
    <glyph glyph-name="space" unicode=" " horiz-adv-x="216" 
 />
    <glyph glyph-name="exclam" unicode="!" horiz-adv-x="312" 
d="M108 94q-16 0 -30.5 10.5t-16.5 26.5q-2 14 13.5 55.5t67.5 167.5q14 32 34.5 81.5t20.5 50.5q24 60 33 64q6 3 13 3q20 0 38 -16t21 -36q2 -10 -62 -159q-66 -155 -85 -195t-29 -48q-7 -5 -18 -5zM53 89q19 0 34.5 -14t15.5 -31q0 -8 -10.5 -30.5t-17.5 -28.5
q-5 -5 -16 -5q-14 0 -28.5 11.5t-18.5 25.5q-3 10 3 26q9 26 17 36t21 10z" />
    <glyph glyph-name="quotedbl" unicode="&#x22;" horiz-adv-x="349" 
d="M80 310q-24 0 -43.5 24t-24.5 50q-13 62 70 145q37 37 51 37q1 0 2.5 -0.5t2.5 -0.5q16 -3 27 -15t12 -27q1 -10 -1 -14t-15 -19q-69 -78 -75 -115q-1 -9 7 -20q15 -23 5 -38q-7 -7 -18 -7zM254 349q11 -18 6 -31t-21 -13q-10 0 -19 5q-23 12 -38 40t-13 57q3 33 42 86
q58 78 85 78q16 0 29.5 -14.5t13.5 -30.5q0 -11 -15 -26q-15 -17 -41.5 -53t-32.5 -48q-4 -7 -6.5 -16.5t-2 -16t2.5 -6.5q3 0 10 -11z" />
    <glyph glyph-name="numbersign" unicode="#" horiz-adv-x="605" 
d="M420 269q-6 0 -11 -15l-7 -15l37 -10q35 -9 43 -15q15 -11 17.5 -36.5t-10.5 -43.5q-13 -19 -33 -19l-44 10q-44 10 -55 13q-4 1 -8.5 -5.5t-22.5 -43.5q-21 -42 -28.5 -51t-23.5 -9q-23 0 -43.5 23.5t-18.5 46.5q2 13 16 37l6.5 13l5.5 11l2 4q0 4 -33 11q-1 0 -3 1
q-5 0 -22 -31q-61 -106 -68 -113q-7 -5 -18 -5t-24 5q-15 8 -25 23t-10 29q0 12 36 74q20 33 25 44q1 2 -3 4t-16 5q-49 14 -62 31q-14 21 -8 44q7 22 24 25q35 0 91 -13l28 -5l6 9q13 19 11 21q0 1 -44 12q-42 11 -53 16q-18 10 -21 34t11 38l7 8l25 -2q35 -3 67 -8l54 -7
l11 -2l19 30q19 29 29 40t19 11q30 0 45 -32q5 -10 4 -18t-10 -25l-9 -22q2 -1 19.5 -4t18.5 -2q0 2 23.5 39t27.5 41q10 10 16 10h7q24 -3 39 -30q11 -21 -3 -59l-4 -10t-3 -7v-3q22 -4 48 -9q48 -7 55 -11q20 -8 24.5 -34.5t-6.5 -49.5t-32 -23q-7 0 -70 13q-57 12 -65 12
zM303 278q3 6 5 10.5t1 4.5q-14 7 -32 7q-4 0 -11 -11q-7 -13 -6.5 -15.5t11.5 -5.5q12 -3 18 -3q7 0 14 13z" />
    <glyph glyph-name="dollar" unicode="$" horiz-adv-x="435" 
d="M10 112q-2 16 14 53.5t33 54.5q11 11 22 11q12 0 25 -13q28 -26 8 -53q-6 -9 -13 -25.5t-6 -17.5t2 -1q9 0 38 10.5t47 20.5q36 20 64 45q36 34 32 40t-45 12q-101 17 -125 72q-8 15 -8 39q0 23 7 38q18 37 57 70t83 48q14 5 16 7q4 4 16 35q31 70 53 70q14 0 29 -13.5
t18 -28.5q1 -10 -11 -35l-13 -28q0 -2 7 -4q15 -4 32.5 -20t24.5 -33q13 -28 6 -59q-4 -16 -17.5 -35.5t-26.5 -19.5q-19 0 -30 22q-11 20 1 43q7 13 4.5 15.5t-22.5 2.5q-65 0 -120 -53q-33 -31 -29 -37l4 -1q4 -1 11.5 -2.5t14.5 -2.5q67 -11 99 -32q41 -26 50 -69
t-18 -84q-25 -37 -70.5 -67.5t-90.5 -42.5l-15 -4l-16 -38q-20 -47 -26 -56.5t-18 -9.5q-15 0 -27.5 10.5t-16.5 24.5q-3 9 5 36l10 28q0 3 -16 10q-21 11 -35.5 29t-17.5 38z" />
    <glyph glyph-name="percent" unicode="%" horiz-adv-x="618" 
d="M608 485q-2 -10 -79 -81q-52 -47 -80 -75q-7 -6 -31.5 -28.5t-34.5 -31.5q-79 -68 -206 -197q-94 -95 -103 -99q-8 -3 -13 -3q-18 0 -34.5 16t-16.5 34q0 10 17.5 29.5t93.5 94.5q148 146 288 264q141 127 166 127h3q13 -3 22.5 -19.5t7.5 -30.5zM190 326q-58 0 -84 52
q-19 40 17 94q30 44 79.5 78t97.5 34q34 0 55 -18q7 -5 22 -17q22 -18 18 -50q-4 -36 -23 -65q-25 -36 -83 -72t-99 -36zM175 406q-1 -3 2 -3q7 0 28 9q29 10 64.5 36.5t47.5 49.5l7 13h-9q-15 0 -47 -15q-59 -29 -93 -90zM457 202q22 -10 34.5 -34t4.5 -42q-3 -6 6 -15
q24 -28 4 -70q-21 -42 -68 -79t-90 -37q-37 0 -68 27.5t-39 64.5q-14 61 49 124q66 68 132 68q20 0 35 -7zM446 100q10 22 8 28q-3 4 -7 4t-8 -1q-45 -6 -90 -50q-16 -15 -27.5 -33.5t-13 -30.5t6.5 -16q2 -1 8 -1q17 0 37 11q55 26 86 89z" />
    <glyph glyph-name="ampersand" unicode="&#x26;" horiz-adv-x="471" 
d="M10 143q4 50 42 101t85 79q0 4 -8 18q-8 17 -8 37q0 50 54 96t108 63q29 10 72 10q59 -3 88 -50q21 -30 17 -66q-4 -23 -22 -49t-39 -26q-14 3 -22.5 15t-8.5 28q0 12 11 29q12 17 12 21q0 7 -26 7q-55 0 -111 -40q-9 -6 -20.5 -16.5t-18.5 -19.5t-6 -10q2 -2 29 -2
q26 0 38 -7q32 -18 32 -55q0 -16 -7.5 -22.5t-34.5 -13.5q-46 -12 -88 -42t-63 -70q-17 -37 -14 -56q2 -13 15 -21.5t31 -8.5q35 0 83 37q12 10 25 26t11 19q0 1 -9 3q-2 1 -6 1q-5 0 -12 -4q-5 -4 -10 -4q-15 0 -25 13t-13 28q-2 16 10.5 31.5t33.5 22.5q8 4 39 8
q50 6 85 20q11 6 22 6q16 0 28 -15.5t12 -35.5q0 -27 -40 -41l-21 -7l2 -12q10 -60 -44 -115q-29 -31 -68 -48.5t-76 -17.5q-12 0 -18 1q-65 10 -107.5 55.5t-38.5 99.5z" />
    <glyph glyph-name="quotesingle" unicode="'" horiz-adv-x="187" 
d="M80 310q-24 0 -43.5 24t-24.5 50q-13 62 70 145q37 37 51 37q1 0 2.5 -0.5t2.5 -0.5q16 -3 27 -15t12 -27q1 -10 -1 -14t-15 -19q-69 -78 -75 -115q-1 -9 7 -20q15 -23 5 -38q-7 -7 -18 -7z" />
    <glyph glyph-name="parenleft" unicode="(" horiz-adv-x="402" 
d="M391 538q-2 -8 -16 -17q-4 -2 -28 -17q-15 -11 -60.5 -57t-60.5 -65q-112 -145 -119 -282q-2 -46 14 -79q21 -40 1 -55q-5 -5 -19 -5t-23 5q-35 16 -54.5 67t-14.5 111q7 93 57.5 186t124.5 167q96 96 147 96q1 0 3.5 -0.5t4.5 -0.5q19 -3 33 -20.5t10 -33.5z" />
    <glyph glyph-name="parenright" unicode=")" horiz-adv-x="331" 
d="M223 596q35 0 64 -47.5t33 -111.5q5 -57 -12 -133t-48 -142q-19 -40 -45 -82t-69.5 -83t-80.5 -41q-10 0 -17 4q-17 7 -28.5 24t-9.5 31q1 10 6 14t21 12q19 9 47 37t48 57q58 89 87.5 199t10.5 170q-7 24 -24 50q-10 16 -4.5 29t21.5 13z" />
    <glyph glyph-name="asterisk" unicode="*" horiz-adv-x="301" 
d="M265 461q16 -8 23 -27t-1 -29q-10 -12 -67 -25q-21 -4 -21 -10l8 -40q8 -29 7.5 -39.5t-9.5 -15.5q-6 -3 -9 -3q-28 0 -49 59q-9 29 -10 29l-11 -6q-6 -4 -11 -7t-16 -10t-24 -15q-18 -12 -27 -12q-19 0 -31.5 22.5t-1.5 36.5q8 12 66 48q20 11 20 14l-10 14
q-28 28 -28 55q0 25 19 25q18 0 49 -40l10 -12l10 20q17 30 31 30q18 0 32 -15q16 -14 10 -36q-4 -9 -2 -11h2q1 0 15 2l14 2q5 0 12 -4z" />
    <glyph glyph-name="plus" unicode="+" horiz-adv-x="342" 
d="M278 303q31 -3 43 -20q11 -16 11 -34t-11 -25q-7 -4 -31 -4h-26l-51 1l-9 -15q-14 -22 -30 -53q-20 -38 -27 -43q-7 -4 -17 -4q-19 0 -36 15.5t-17 33.5q0 9 14 36l14 26l-31 1q-29 0 -40 6q-15 8 -21.5 26t2.5 29q5 7 18.5 9t67.5 7q53 4 55 7q7 10 25 39q22 35 33 46
q11 12 23 12q23 0 39 -24q12 -20 -6 -51l-11 -20z" />
    <glyph glyph-name="comma" unicode="," horiz-adv-x="159" 
d="M140 57q15 -32 5 -66q-8 -20 -39 -58.5t-47 -38.5q-5 0 -12 3q-18 6 -29 23q-8 10 -8 25q0 11 2 15.5t16 19.5q37 42 43 56q3 8 -4 16q-13 13 -15 26.5t6 21.5q6 6 16 6q16 0 36 -14.5t30 -34.5z" />
    <glyph glyph-name="hyphen" unicode="-" horiz-adv-x="318" 
d="M296 224q-6 -6 -17 -7t-135 -7q-52 -2 -86 -4l-25 -1l-10 10q-17 17 -12 42q1 12 10 18t29 11q45 9 168 15q10 0 21.5 0.5t18.5 1t11 0.5q36 0 39 -41q2 -26 -12 -38z" />
    <glyph glyph-name="period" unicode="." horiz-adv-x="115" 
d="M99 63q7 -16 6 -27q-2 -13 -5 -18q-5 -5 -25 -15t-24 -10q-17 0 -29 17.5t-12 35.5q0 14 6 20q5 5 24.5 13.5t26.5 8.5q19 0 32 -25z" />
    <glyph glyph-name="slash" unicode="/" horiz-adv-x="517" 
d="M450 502q9 6 18 6q21 0 33 -26q8 -18 4.5 -30.5t-22.5 -34.5q-30 -37 -145 -158t-199 -204q-55 -55 -65 -56q-12 0 -16 1q-26 8 -40 31.5t-4 43.5q6 12 200.5 205.5t235.5 221.5z" />
    <glyph glyph-name="zero" unicode="0" horiz-adv-x="404" 
d="M251 514q107 0 136 -98q15 -46 2 -111q-8 -42 -29 -92.5t-52.5 -98t-75.5 -79.5t-90 -32q-40 0 -75 27q-45 34 -54.5 98t16.5 146q27 82 80 147.5t109 85.5q17 7 33 7zM306 338q5 27 2.5 61.5t-9.5 36.5q-27 0 -66 -34q-43 -37 -77 -99.5t-46 -125.5q-4 -26 -3 -53
q2 -27 5 -34q3 -4 8 -4q9 0 27 9q52 26 98 96t61 147z" />
    <glyph glyph-name="one" unicode="1" horiz-adv-x="287" 
d="M10 59q-1 10 13 43t79 168l47 97l-10 2q-11 2 -21 13q-22 22 -16 45q7 17 51.5 49t62.5 32q25 0 41 -29q7 -13 11 -17q3 -3 6 -14q6 -20 -10 -62q-19 -52 -88 -207.5t-76 -162.5q-8 -11 -25 -11q-9 0 -14 2q-17 5 -32.5 20.5t-18.5 31.5z" />
    <glyph glyph-name="two" unicode="2" horiz-adv-x="483" 
d="M119 309q-3 18 8 47q21 55 97.5 105.5t137.5 50.5q28 0 49 -11q45 -22 58.5 -72.5t-12.5 -99.5q-18 -35 -61 -71t-165 -119q-5 -3 -13 -9.5t-9 -7.5q-7 -6 -6 -6h4q41 9 82 9q42 -3 55 -39q13 -37 -12 -49q-8 -4 -47 -7q-52 -2 -114 -15t-100 -32q-8 -5 -14 -5t-15 5
q-15 8 -24.5 25t-6.5 30q2 12 15.5 38t24.5 40q50 61 144 125q15 10 85 59q95 64 115 103q6 13 3 16t-22 3q-50 0 -111 -39t-84 -83q-13 -25 -24 -25q-5 0 -8 1q-8 2 -17.5 12.5t-12.5 20.5z" />
    <glyph glyph-name="three" unicode="3" horiz-adv-x="447" 
d="M78 93q9 -12 26 -12q44 0 94.5 23t83.5 56t27 41q-3 9 -33 15q-21 3 -43 3q-25 0 -33.5 2t-17.5 12q-16 18 -18 43q0 18 9 27t55 34q89 50 112 73q21 20 19 22t-12 2h-17q-98 -5 -131 -79q-11 -23 -21 -23q-2 0 -10 2q-12 4 -21 18t-9 30q0 38 48 86q51 51 144 51
q36 0 51 -7q30 -14 46 -47q17 -35 6 -73q-16 -54 -79 -93l-22 -14l20 -20q30 -30 38 -67q10 -48 -24 -98q-35 -52 -100.5 -83t-130.5 -31q-43 0 -77 26.5t-45 68.5q-5 16 -1 27q6 20 23 20q21 0 43 -35z" />
    <glyph glyph-name="four" unicode="4" horiz-adv-x="454" 
d="M436 438q-24 -57 -114.5 -245.5t-102.5 -200.5q-6 -6 -19 -6q-11 0 -18 4q-17 8 -28.5 25t-11.5 34q0 10 33 77l16.5 33t11 23.5t2.5 8.5q-20 0 -95 -15q-35 -6 -47 -6q-15 0 -27 9q-16 13 -23 34t1 35q7 12 125 111q69 57 193 148q37 28 55 28q7 0 14 -5q21 -12 38 -38
q11 -18 -3 -54zM257 287q4 8 15 28.5t20 38.5l8 18q-2 0 -29 -22q-30 -26 -52 -43q-26 -20 -26 -22h6q58 0 58 2z" />
    <glyph glyph-name="five" unicode="5" horiz-adv-x="487" 
d="M261 326q54 0 86 -33q33 -36 30 -90q-2 -25 -5 -35q-21 -71 -94.5 -128t-146.5 -57q-16 0 -23 2q-34 7 -54 28.5t-39 59.5q-10 23 -2.5 44.5t24.5 21.5q11 0 21.5 -11t14.5 -26q8 -30 37 -30q31 0 70.5 20.5t69.5 52.5q23 25 40 55t11 35q-4 4 -34 4q-49 0 -118 -31
q-28 -14 -34 -14q-12 0 -24 14q-16 17 -12 35q2 13 1 22q0 11 4 21q3 8 46 80.5t56 92.5q15 19 19 21q3 2 8 7q6 10 36 16q59 15 150 15q34 0 44 -4q18 -5 29 -27q7 -16 3 -34.5t-14 -20.5q-26 -5 -84 -7q-121 -3 -125 -9q-52 -96 -51 -97q9 1 18 3q20 4 42 4z" />
    <glyph glyph-name="six" unicode="6" horiz-adv-x="430" 
d="M417 472q6 -20 0.5 -32t-19.5 -12q-5 0 -8 1q-8 2 -10 2q-26 0 -75.5 -31.5t-75.5 -56.5l-25 -24l20 -3q81 -13 109 -72q17 -37 7 -83t-45 -90q-65 -80 -136 -80t-116 58q-39 49 -32 106q14 120 124 235q117 119 211 123q7 1 16 1q8 0 21 -5q25 -11 34 -37zM255 224
q-10 2 -20 2q-11 0 -41 -4t-40 -4q-12 0 -17 3q-1 0 -1 0.5t-1 0.5q-9 0 -24.5 -47t-15.5 -64q0 -33 34 -33q42 0 84.5 45.5t48.5 88.5q1 8 0 9t-7 3z" />
    <glyph glyph-name="seven" unicode="7" horiz-adv-x="422" 
d="M390 497q34 -29 17 -62q-16 -34 -264 -355q-42 -55 -56 -70t-24 -15q-20 0 -36.5 22t-16.5 42q0 10 8 21q10 14 108.5 139.5t139.5 175.5l25 32q-17 -1 -36 -3q-32 -3 -65 -3q-32 0 -42 3q-10 2 -21.5 15t-14.5 24q-7 26 9 34q19 8 108 14t129 6q14 -4 32 -20z" />
    <glyph glyph-name="eight" unicode="8" horiz-adv-x="455" 
d="M343 272q-46 -53 -47 -55l-13 -16l10 -13q35 -43 35 -83q0 -38 -37 -72t-77 -44q-24 -7 -53 -7q-47 0 -90 23.5t-56 64.5q-10 31 2 64t52 82q19 26 44 50q20 19 19 25q-6 43 -3 60q14 69 72.5 118t128.5 49q45 0 77.5 -18t36.5 -59q3 -30 -13.5 -57.5t-87.5 -111.5z
M186 70q24 10 45 30t20 33q0 13 -45 59l-24 25l-20 -23q-64 -70 -74 -110q-2 -10 1 -13t19 -8q7 -2 24 -2q32 0 54 9zM244 292q21 33 45 60q67 79 67 84q-2 3 -5 3q-1 0 -4 -0.5t-5 -0.5q-39 -2 -77.5 -30.5t-54.5 -64.5q-19 -43 9 -76l5 -7z" />
    <glyph glyph-name="nine" unicode="9" horiz-adv-x="400" 
d="M390 402q0 -14 -1 -18q-4 -14 -71 -131q-55 -97 -107 -224q-25 -64 -43 -73q-7 -4 -16 -4q-11 0 -23 6q-23 11 -33 32t-3 43q2 8 32 76.5t40 88.5l4 8l3 6v2h-1l-3 -1l-6 -1.5t-6 -2t-7 -2.5q-23 -8 -47 -8q-37 1 -63 26q-26 26 -29 60q-3 71 80 153q88 82 169 82
q80 0 99 -68q3 -10 10 -15q6 -4 13.5 -15.5t8.5 -19.5zM300 417q3 5 1 10q-3 7 -11 7q-24 0 -65 -21t-70 -48q-32 -30 -48 -61q-4 -8 -1 -8q22 8 103 58t91 63z" />
    <glyph glyph-name="colon" unicode=":" horiz-adv-x="155" 
d="M67 205q18 0 31 -25q7 -13 6 -27q0 -11 -5 -18q-4 -4 -23.5 -14.5t-24.5 -10.5q-6 0 -13 4q-28 14 -28 49q0 14 5 20q5 5 24.5 13.5t27.5 8.5zM79 253q-28 14 -28 49q0 14 5 20t24.5 14t27.5 8q18 0 31 -25q7 -13 6 -27q0 -12 -5 -17q-4 -4 -23.5 -15t-24.5 -11
q-3 0 -13 4z" />
    <glyph glyph-name="semicolon" unicode=";" horiz-adv-x="184" 
d="M168 213q7 -17 6 -27q-2 -13 -5 -18q-5 -5 -25 -15.5t-24 -10.5q-17 0 -29 18.5t-12 35.5q0 14 6 20q5 5 24.5 13.5t26.5 8.5q19 0 32 -25zM57 95q6 6 16 6q17 0 36.5 -14t29.5 -35q15 -31 5 -66q-6 -19 -37.5 -58t-47.5 -39q-6 0 -12 3q-17 5 -30 23q-7 11 -7 25
q0 11 2 15.5t15 19.5q36 39 43 56q3 6 2.5 8t-6.5 8q-12 13 -14.5 26.5t5.5 21.5z" />
    <glyph glyph-name="less" unicode="&#x3c;" horiz-adv-x="340" 
d="M289 407q4 10 22 -22q26 -45 17 -56q-1 -1 -2 -1q-75 -24 -132 -51q-27 -12 -65 -31q9 -6 26.5 -19t28 -20.5t25.5 -18.5t25 -17t20.5 -12.5t17 -9t9.5 -1.5q12 3 -8 -34q-23 -42 -36 -40q-2 0 -3 1q-61 52 -113 85q-92 59 -109 57q-4 1 0 15t13.5 30.5t18.5 25.5
q0 3 1 4q7 8 123 55t121 60z" />
    <glyph glyph-name="equal" unicode="=" horiz-adv-x="358" 
d="M287 214q19 -9 20 -36q3 -29 -13 -42q-4 -3 -24 -3q-9 0 -10 1q-5 5 -164 10l-65 2l-8 8q-10 10 -12.5 28t5.5 28t22 12t87 2q139 0 162 -10zM310 357q22 -4 32 -23q8 -14 5 -33t-13 -26q-4 -3 -23 -3q-9 0 -33 2q-42 7 -171 12q-28 2 -34 3t-12 7q-13 13 -12 38
q1 14 7.5 20t22.5 8q12 2 70 2q129 0 161 -7z" />
    <glyph glyph-name="greater" unicode="&#x3e;" horiz-adv-x="340" 
d="M328 266q4 -1 0 -15t-13.5 -30.5t-18.5 -25.5q0 -3 -1 -4q-7 -8 -123 -55t-121 -60q-4 -11 -23 23q-24 47 -14 56q85 27 132 51q27 12 65 31l-21 15t-21.5 15.5t-20.5 15t-21 14.5t-18.5 12.5t-17.5 11.5t-14 7.5t-11.5 5t-7.5 0.5q-12 -2 9 36q24 41 36 39q2 0 3 -1
q59 -50 112 -85q92 -59 110 -57z" />
    <glyph glyph-name="question" unicode="?" horiz-adv-x="445" 
d="M60 84q16 0 31 -13.5t18 -30.5q1 -12 -13 -41q-14 -34 -15 -38q-3 -17 -24 -17q-9 0 -16 4q-22 11 -28 30q-8 21 6 59q8 27 17 37t24 10zM419 460q19 -35 16 -81q-1 -24 -10 -40q-7 -16 -22 -33q-26 -28 -110 -77q-93 -57 -133 -104q-5 -6 -11 -13t-9.5 -11.5t-4.5 -5.5
q-9 -7 -20 -7q-1 0 -3 0.5t-3 0.5q-19 6 -30 29q-10 23 7 58q28 60 161 141q85 52 105 73q11 11 11 23q0 16 -23.5 33.5t-57.5 26.5q-24 6 -62 6q-67 0 -111 -39q-29 -27 -29 -51q0 -19 17 -29q19 -10 27 -29.5t-3 -31.5q-5 -5 -13 -5q-29 0 -56 30q-43 48 -35 105
q8 54 53 89.5t104 45.5q15 4 46 4q36 0 64 -6q99 -27 135 -102z" />
    <glyph glyph-name="at" unicode="@" horiz-adv-x="481" 
d="M10 179q-5 85 47 164q47 73 113.5 121t142.5 48q57 0 98 -34.5t56 -90.5q12 -49 -9.5 -113t-64.5 -108q-43 -43 -88 -43q-33 0 -60 27l-12 12l-13 -5q-10 -5 -26 -5q-42 0 -66 44q-6 14 -5 34q3 52 54.5 102.5t102.5 50.5q30 0 58 -26q16 -16 19.5 -43t-7.5 -52
q-6 -14 -12 -19.5t-18 -5.5q-14 2 -15 3t-3 1l1 -6q6 -15 -4 -26q-6 -8 -6 -11t2 -3t9 4q37 21 69.5 79t29.5 99q-4 51 -51 55q-80 0 -149.5 -59t-97.5 -139q-9 -26 -9 -61q0 -37 6 -55q5 -16 12 -21.5t24 -5.5q15 0 28 5q17 5 26 5q18 0 36 -13t19 -30q2 -15 -10 -24
t-41 -15q-18 -3 -39 -3q-12 0 -16 1q-124 30 -131 162zM287 295q6 12 6 16q-1 1 -22 -8q-19 -9 -39 -30q-29 -29 -30 -41q2 0 16 9q15 11 19 16q9 9 21 9q10 0 25 -6q2 -1 2 0t-2 4q-6 12 4 31z" />
    <glyph glyph-name="A" unicode="A" horiz-adv-x="393" 
d="M182 194l-70 -94q-54 -73 -66 -86t-25 -13q-19 0 -36 17q-11 10 -15 23.5t1 22.5q5 11 112 150l33 44l-23 21q-22 22 -22 31q0 14 14.5 22t29.5 8q18 0 34 -10q11 -8 14 -8t41 49q67 88 87.5 110.5t32.5 24.5q22 3 29 3q12 0 25 -10t15 -21q4 -15 -14 -107
q-12 -61 -43 -207t-34 -154q-7 -16 -33 -16q-16 0 -33.5 11t-20.5 25q-1 6 10 56l11 48l-11 14q-9 12 -27 30zM255 293l-21 -30l12 -11q10 -10 13 -10q1 0 10 39l9 40l-2 -2q-2 -2 -5.5 -6t-7 -8.5t-8.5 -11.5z" />
    <glyph glyph-name="B" unicode="B" horiz-adv-x="365" 
d="M165 407l-6 11q-5 10 -5 24q0 19 9 28.5t40 25.5q47 22 93 25q91 0 123 -62q8 -16 9 -43q1 -25 -6 -45q-26 -77 -115 -129l-25 -15l13 -13q29 -25 29 -69q0 -24 -7 -39q-23 -47 -100 -82.5t-139 -35.5q-32 0 -42 25q-1 2 -4 6.5t-5.5 8.5t-4.5 6q-16 18 -11 35
q10 33 146 321zM238 359q-12 -29 -19.5 -48.5t-6.5 -19.5l18 10q69 40 93 63q39 37 39 52q0 5 -13 10t-29 6q-24 0 -36 -2l-19 -3zM185 192l-11 11l-24 -56q-5 -12 -12 -28.5t-11 -25t-4 -10.5l-4 -8l14 5q26 9 73.5 36t47.5 38q0 4 -43 22q-16 6 -26 16z" />
    <glyph glyph-name="C" unicode="C" horiz-adv-x="329" 
d="M21 48q-30 45 -17 113q9 44 35 101.5t62.5 113.5t86 94t97.5 38q41 0 71.5 -27t32.5 -66q1 -35 -18 -77q-23 -48 -50 -48q-13 3 -24.5 19t-8.5 27q3 8 11 23q15 26 21 55l2 8l-10 -2q-50 -9 -111 -84.5t-92 -167.5q-30 -90 -10 -105q5 -4 14 -4q32 0 69.5 49t49.5 86
q5 17 10.5 22t17.5 5q20 0 38 -21q7 -9 7 -29q0 -19 -11 -42q-55 -104 -119 -129q-18 -5 -47 -5q-70 0 -107 53z" />
    <glyph glyph-name="D" unicode="D" horiz-adv-x="462" 
d="M427 226q-50 -65 -167.5 -145.5t-187.5 -80.5q-14 0 -21 4q-21 10 -26 37q-2 14 -5 23l-3 11l30 61q7 15 19.5 40.5t30 60.5t25.5 52l47 91l-5 11q-6 12 -6 27t6.5 23.5t27.5 22.5q27 18 34 22q13 10 24 11q16 2 35 7q24 6 48 6q44 0 77.5 -19t49.5 -53q10 -20 13 -33
t2 -40q0 -75 -48 -139zM188 144q62 41 117 89t76 79q15 23 22 46t1 33q-5 11 -35 18q-14 2 -26 2q-35 0 -51 -6l-14 -5l-21 -46q-27 -58 -61 -128q-10 -19 -21 -42t-17.5 -36.5t-8.5 -16.5l-6 -13l8 4q5 2 37 22z" />
    <glyph glyph-name="E" unicode="E" horiz-adv-x="434" 
d="M65 24q-81 65 -12 209q7 14 7.5 17t-3.5 7q-9 10 -11.5 24.5t2.5 24.5q3 6 14.5 10.5t20.5 4.5q10 0 16.5 7t27.5 42l28 47l-9 9q-16 16 -16.5 37.5t14.5 29.5q34 17 216 17q67 0 89.5 -2.5t32.5 -11.5q12 -11 14.5 -30t-7.5 -32l-5 -6l-59 -2q-64 -2 -114 -2h-55
l-45 -92l34 1h23q39 0 49 -11q11 -11 12.5 -29t-7.5 -29q-5 -6 -45 -8q-6 -1 -75 -4l-37 -2l-20 -42q-33 -69 -38 -105q-5 -33 6 -33q28 0 70 21q34 18 100 64q27 20 36 20q15 0 28 -14t13 -30q0 -26 -80 -78q-83 -54 -148 -54q-33 0 -67 25z" />
    <glyph glyph-name="F" unicode="F" horiz-adv-x="381" 
d="M115 308q2 4 30 67l18 37l-7 7q-10 10 -13 26t3 28q7 12 41 20q14 3 19 7t40 5q46 0 92 3q16 1 44 1q62 0 80 -12q15 -10 17.5 -34t-9.5 -37q-7 -6 -37 -6q-6 0 -43.5 -0.5t-59.5 -0.5l-72 -2l-23 -59q-22 -56 -22 -62q0 -1 37 -1q6 0 14 0.5t10 0.5q13 0 20 -5
q18 -13 19.5 -40t-15.5 -35q-22 -12 -79 -17q-3 0 -10 -1q-35 -2 -40 -9q-2 -2 -5 -9l-2 -6q-21 -63 -25 -73q-26 -70 -35 -90q-6 -10 -12 -13q-7 -4 -20 -4q-32 0 -51 28q-8 11 -6.5 23.5t14.5 43.5q5 11 15.5 42t12.5 37l14 35l-5 8q-8 15 -6.5 31t11.5 23q4 2 19 9l13 3z
" />
    <glyph glyph-name="G" unicode="G" horiz-adv-x="375" 
d="M10 120q-1 57 29 131q24 56 67 116t105.5 108.5t119.5 48.5q47 -1 74 -32t20 -76q-4 -27 -16.5 -49.5t-24.5 -23.5q-12 0 -25 10.5t-17 23.5q-1 6 5 31q5 16 6.5 25t-0.5 10q-13 0 -46 -19q-57 -31 -111 -102.5t-76 -137.5q-19 -55 -16 -86q4 -36 16 -37q15 -2 35 14
q33 27 65 70q26 39 26 45q0 1 -7.5 -3t-18.5 -11t-20 -13q-14 -8 -19 -8q-13 -1 -25.5 11t-14.5 27q-1 13 4 20q8 13 44.5 37.5t51.5 26.5q1 0 3 0.5t3 0.5q13 0 24 -11q5 -5 17 -5q25 0 43 -18q19 -19 14 -52q-11 -52 -60 -114.5t-98 -81.5q-27 -8 -52 -8q-55 6 -89 42
t-36 90z" />
    <glyph glyph-name="H" unicode="H" horiz-adv-x="420" 
d="M494 444q0 -13 -37 -78q-26 -47 -68.5 -145.5t-68.5 -173.5q-11 -28 -16 -33q-9 -9 -24 -9q-18 0 -36 11t-27 28q-7 11 -2 32t33 89q18 49 17 50q0 1 -9.5 -1t-28.5 -7q-8 -2 -19 -4t-18.5 -4t-10.5 -2q-11 -2 -13 -4q-7 -13 -26 -58q-44 -101 -51.5 -117t-16.5 -20
q-12 -5 -21 -5q-21 0 -41 15.5t-20 34.5q0 12 77 173q30 65 49 104q56 122 83 168q13 24 27 24q17 0 32 -17t15 -35q1 -12 -39 -108q-23 -55 -23 -58q0 -1 4 0t10.5 3t13.5 4q42 10 52 12q23 5 24 10q85 169 119 178q1 0 3 0.5t3 0.5q19 0 36.5 -18.5t17.5 -39.5z" />
    <glyph glyph-name="I" unicode="I" horiz-adv-x="271" 
d="M10 50q-1 10 3 20t27 57q38 80 110 218t82 152q8 11 25 11q16 0 27 -10q33 -29 15 -74q-37 -91 -170 -361q-28 -59 -37 -63q-8 -4 -19 -4q-6 0 -16 2q-22 7 -39 28q-7 12 -8 24z" />
    <glyph glyph-name="J" unicode="J" horiz-adv-x="375" 
d="M486 447q-7 -29 -65 -135q-17 -31 -42 -78q-61 -114 -90 -156q-65 -90 -144 -90q-17 0 -26 3q-45 10 -74.5 45.5t-34.5 81.5q-4 45 25 97.5t72 77.5q41 25 82 25q12 0 17 -2q26 -8 37 -34t-6 -37q-7 -5 -27 -8q-46 -10 -74 -39q-13 -14 -25.5 -39.5t-15.5 -42.5
q-4 -36 8 -44q4 -2 10 -2q25 0 54.5 26.5t45.5 52.5q23 34 95 162q19 36 42 74l20 33h-4q-4 0 -32 -2q-30 -2 -40 -2q-50 0 -69 17q-14 13 -17.5 30.5t5.5 26.5q7 7 42 9q37 2 69 7q9 1 65 8q7 0 15 1t12 1l5 1q2 1 3 1q15 0 29 -7q11 -2 20 -12t12 -23q5 -13 1 -27z" />
    <glyph glyph-name="K" unicode="K" horiz-adv-x="433" 
d="M506 499q14 -10 20 -30.5t0 -35.5q-6 -12 -61 -44q-50 -30 -147.5 -94.5t-97.5 -67.5q0 -19 23 -78q22 -52 51 -83q19 -21 19 -27q1 -22 -19 -33q-11 -7 -32 -8h-10q-33 0 -63.5 44t-45.5 88l-7 15l-33 -64q-33 -65 -38 -68q-9 -6 -20 -6q-22 0 -42.5 15.5t-22.5 35.5
q-1 12 54 118q148 283 167 310q10 16 26 16q15 0 30 -14.5t17 -32.5q3 -15 -25 -76q-13 -29 -12 -30q0 -1 10 6t24 17q193 135 217 135q8 0 18 -8z" />
    <glyph glyph-name="L" unicode="L" horiz-adv-x="406" 
d="M300 168q19 0 32 -18t15 -39q1 -18 -4 -26q-6 -11 -41 -20q-15 -4 -110 -41q-120 -48 -141 -48q-7 0 -17 4q-17 9 -22 28q-17 52 -14 62q5 16 104 236q5 11 22 47.5t22 46.5q49 108 61 120q7 8 18 8q17 0 32 -16t15 -36q0 -21 -45 -129q-20 -48 -44 -104q-15 -37 -37 -87
q-21 -49 -21 -51q16 7 34 15q66 31 111 42q19 6 30 6z" />
    <glyph glyph-name="M" unicode="M" horiz-adv-x="655" 
d="M716 472q3 -9 -0.5 -21.5t-21.5 -55.5q-13 -32 -82.5 -189t-78.5 -175q-7 -14 -14.5 -19t-21.5 -5q-35 5 -51 38q-8 15 -3.5 31.5t40.5 91.5q26 56 26 57q2 2 0 2q-19 -22 -42 -50q-100 -121 -127 -147q-9 -9 -13.5 -10.5t-19.5 -3.5q-6 -1 -15 -1q-26 0 -45 18
q-17 15 -18.5 31t4.5 108q5 101 8 115v6q-1 0 -2 -2q-8 -12 -130 -269q-14 -26 -19 -30q-8 -5 -22 -5q-5 0 -13 2q-19 8 -32 23.5t-13 31.5q0 11 76 160q138 270 155 292q9 12 20 12q59 0 75 -38q10 -27 -7 -274l-3 -44l1 1q1 1 3 3.5l4 5t4.5 6t5.5 6.5q77 99 220 278
q32 40 43.5 51.5t21.5 11.5q6 0 9 -1q6 -2 24 -2q44 0 54 -40z" />
    <glyph glyph-name="N" unicode="N" horiz-adv-x="509" 
d="M521 512q19 0 35 -15.5t16 -33.5q0 -33 -160 -381q-23 -51 -31 -63t-20 -12q-23 0 -42.5 13.5t-26.5 35.5q-4 13 -12 23q-7 7 -12 19q-1 6 -5 100q-1 73 -4 140l-2 49l-26 -61q-7 -17 -35.5 -82t-42.5 -98q-53 -119 -53 -120q0 -2 -10 -14q-12 -12 -25 -12q-36 0 -57 36
q-6 13 -4.5 25.5t13.5 37.5q6 13 16.5 36.5t31 67.5t43.5 94q92 204 111 223q10 10 20 10q12 0 22 -5q8 -2 10 -2t3 1q7 5 16 5q21 0 39 -15q16 -16 20 -38q7 -41 12 -168l4 -67l24 47q62 133 97 195q18 29 35 29z" />
    <glyph glyph-name="O" unicode="O" 
d="M153 467q70 56 147 56q68 0 116 -48q59 -59 52 -147q-6 -63 -42 -141t-95.5 -139t-119.5 -61q-63 0 -116 51q-27 25 -38 51.5t-11 66.5q0 41 18 87q8 23 6 32q-6 18 5 66q10 44 27.5 72t50.5 54zM301 169q35 52 58.5 113t23.5 100q0 43 -40 47q-46 0 -77 -13l-16 -8
l7 -14q10 -18 7 -27t-25 -32q-26 -28 -54 -74.5t-41 -83.5q-14 -43 -7 -74q7 -30 42 -30q18 0 37 8q16 8 42 35t43 53z" />
    <glyph glyph-name="P" unicode="P" horiz-adv-x="490" 
d="M487 425q18 -40 15 -79q-3 -53 -38 -99q-50 -68 -112.5 -90t-159.5 -22q-18 0 -20 1t-15 -28q-2 -4 -3.5 -6.5t-3.5 -7.5t-4 -9q-38 -78 -45 -85q-9 -9 -21 -9q-22 0 -41 20t-19 41q0 1 -0.5 4.5t0.5 6t4.5 12.5t12 27.5t22.5 46.5q55 111 93 186l39 75l-11 10
q-15 13 -17.5 30.5t8.5 29.5q16 18 68 29.5t88 11.5q114 0 160 -96zM393 312q32 37 32 62q0 28 -34 40.5t-68 12.5q-25 0 -27 -3q-13 -43 -73 -171l-8 -20q14 2 30 4q52 7 84.5 23.5t63.5 51.5z" />
    <glyph glyph-name="Q" unicode="Q" 
d="M484 361q0 -69 -38 -149.5t-101 -145.5l-25 -26l4 -11q3 -9 10 -23q6 -14 6 -17q0 -24 -26 -24q-34 0 -54 33q-2 4 -4 4q-1 0 -14 -5q-26 -9 -50 -9q-73 0 -115 65q-28 44 -21 102q10 69 58 134l16 22l1 18q0 19 13 46q25 59 82 103.5t117 44.5q59 0 100 -51t41 -111z
M309 179q40 50 67 110t27 100q0 15 -8 26.5t-22 11.5q-63 0 -124 -69l-9 -12l6 -12q7 -11 7 -23q0 -9 -3.5 -14t-23.5 -26q-63 -62 -83 -136q-10 -38 2 -52q3 -3 14 -3q21 0 38 8q17 7 19.5 9.5t0.5 10.5q-5 19 -5 55.5t6 53.5q4 15 26 15q20 -2 33 -19.5t13 -42.5
q0 -10 2 -10q3 2 17 19z" />
    <glyph glyph-name="R" unicode="R" horiz-adv-x="465" 
d="M369 514q107 0 148 -84l11 -22v-34q0 -34 -7 -51q-36 -91 -158 -132q-56 -18 -92 -18q-8 0 -8 -1t2.5 -7.5t5.5 -15.5t5 -14q8 -19 26.5 -51.5t28.5 -44.5q12 -14 14 -20q3 -10 -4.5 -21.5t-21.5 -18.5q-11 -6 -32 -6q-57 0 -113 147q-3 13 -6 16l-4 -6q-5 -7 -12 -20
t-15 -28q-30 -56 -37 -67.5t-15 -16.5q-6 -5 -19 -5q-16 0 -31 10.5t-21 27.5q-7 17 -1 37t32 66q24 43 35 64q39 74 87 147l31 47l-11 5q-26 15 -23 46q1 12 12 22q24 24 83.5 36.5t109.5 12.5zM453 381l5 11l-10 9q-20 17 -85 20l-41 1l-13 -26q-24 -51 -58 -106l-13 -22
h10q52 0 121 35t84 78z" />
    <glyph glyph-name="S" unicode="S" horiz-adv-x="448" 
d="M342 513q96 0 128 -70q34 -74 -30 -138q-17 -17 -22 -17h-2l-2 1q-14 3 -22.5 18.5t-7.5 33.5q1 15 12 29q16 21 17.5 26.5t-8.5 9.5q-18 8 -48 8q-47 0 -95.5 -22t-71.5 -58q-4 -7 0 -12q3 -2 33 -20q88 -50 118 -99q42 -64 13 -126q-18 -43 -76 -64.5t-113 -21.5
q-59 0 -105.5 27.5t-49.5 82.5q-1 20 7 38q31 62 65 62q15 -2 26 -17t11 -34q0 -12 -11 -25q-23 -25 -19 -29l20 -4q6 -1 19 -1q60 0 114 27q14 7 27 18t13 16t-21 23t-40 29q-54 32 -81.5 63t-27.5 81q0 25 4.5 38t18.5 32q30 42 90.5 68.5t116.5 26.5z" />
    <glyph glyph-name="T" unicode="T" horiz-adv-x="358" 
d="M111 -31q-27 0 -48 24q-21 22 -8 52q10 23 76.5 165t84.5 177l6 12l-43 -2q-7 0 -17 -0.5t-13 -0.5q-15 0 -23 3q-19 8 -25 32t7 40q8 9 26 12q99 26 256 26q55 0 68 -6q23 -11 25 -44.5t-19 -48.5q-6 -5 -32 -6h-62l-36 -1l-14 -33q-68 -162 -165 -370q-13 -24 -17 -26
q-8 -5 -27 -5z" />
    <glyph glyph-name="U" unicode="U" horiz-adv-x="451" 
d="M77 21q-61 59 -12 209q29 88 89 179q71 104 90 109q2 1 7 1q18 0 34 -16.5t14 -34.5q-1 -10 -53 -91q-67 -102 -90 -172q-33 -95 -22 -137q2 -8 4 -9.5t7 -1.5q18 2 44 24q31 27 100 132.5t119 203.5q30 58 35 63t18 5q18 0 33.5 -13.5t18.5 -31.5q1 -11 -35 -81
q-61 -116 -121 -207q-61 -94 -100 -130t-84 -39q-56 0 -96 38z" />
    <glyph glyph-name="V" unicode="V" horiz-adv-x="443" 
d="M64 27q-7 10 -5 25q3 20 50 201q32 126 57 202q14 44 33 44q14 0 27 -11t18 -25q4 -11 2 -25q-4 -39 -34 -168q-16 -62 -14 -64q20 22 43 50q187 227 198 233q6 3 12 3q25 0 45 -27q18 -27 5 -50q-13 -21 -169 -202t-182 -206q-15 -14 -23 -14h-4q-12 0 -14 1
q-8 3 -24.5 15t-20.5 18z" />
    <glyph glyph-name="W" unicode="W" horiz-adv-x="621" 
d="M87 51q-52 56 -1 181q27 66 102 180.5t118 114.5q10 0 23 -8q30 -20 25 -46q-2 -5 -20 -27q-44 -50 -107 -161.5t-71 -164.5q-1 -10 0 -10q2 0 3 1q17 9 58.5 55.5t82.5 100.5q11 15 22 26q2 2 8 7t8 6q10 10 23 10q7 0 16 -3q26 -11 33 -35q3 -10 -9 -45
q-19 -51 -22 -60q-19 -58 -15 -84q2 -13 5 -16q3 0 23 18q54 49 114.5 157t79.5 182q9 35 14 42.5t20 7.5q18 0 35 -16t17 -34q0 -12 -9 -46t-18 -57q-28 -79 -99 -191.5t-123 -134.5q-16 -8 -38 -8t-44.5 13.5t-36.5 32.5q-8 10 -16.5 27.5t-8.5 22.5q0 4 -22 -15
q-56 -55 -100 -55q-17 0 -37.5 10t-32.5 22z" />
    <glyph glyph-name="X" unicode="X" horiz-adv-x="413" 
d="M-43 81q5 6 96 88l90 81v22q4 140 16 197q5 24 13 32.5t24 8.5q18 0 33.5 -10t21.5 -24q3 -9 3 -68v-59l42 36q63 57 115 97q36 28 51 28q16 0 30 -16t14 -32q0 -14 -12 -29q-22 -29 -165 -157l-70 -62l2 -24q4 -73 18 -131q7 -39 -1 -50q-13 -16 -41 -16q-41 0 -58 31
q-5 8 -14 55l-9 44l-61 -54q-64 -54 -69 -57q-7 -4 -18 -4q-19 0 -36.5 12t-21.5 30q-5 16 7 31z" />
    <glyph glyph-name="Y" unicode="Y" horiz-adv-x="379" 
d="M96 207q-40 40 -23 103q11 42 53.5 124t70.5 82q16 0 29.5 -15t13.5 -31q0 -12 -14 -35q-23 -33 -47 -89t-29 -85l-2 -11l7 2q32 10 87 66t92 119q36 61 66 61q16 -2 29 -17.5t13 -31.5q0 -20 -49 -116q-95 -186 -136 -285q-19 -45 -22 -50q-8 -11 -26 -11
q-21 0 -41 18.5t-20 39.5q0 4 19 49t30 66q9 18 8 19q0 1 -2 0.5t-5 -1.5q-13 -5 -27 -5q-43 0 -75 34z" />
    <glyph glyph-name="Z" unicode="Z" horiz-adv-x="427" 
d="M293 386q45 36 45 38q-22 0 -46 -2q-48 -2 -67 -2q-24 0 -33 6q-13 9 -19 29t1 33q5 10 23.5 14.5t75.5 9.5q103 11 142 11q23 0 33 -5t21 -16t15 -20q12 -23 1 -45q-11 -23 -123 -119q-80 -69 -157 -141q-81 -76 -74 -76l5 1q5 1 14 2.5t18 2.5q57 11 110 11
q26 -4 40.5 -20t14.5 -41q0 -16 -6 -23q-7 -8 -19.5 -11t-57.5 -6q-62 -4 -139 -19q-63 -12 -73 -12q-7 0 -17 4q-11 5 -26 20.5t-17 24.5q-6 18 7 42q32 62 126.5 151.5t181.5 157.5z" />
    <glyph glyph-name="bracketleft" unicode="[" horiz-adv-x="417" 
d="M157 109q-16 -36 -21 -46l-14 -29l10 -9q14 -11 19 -26.5t-2 -24.5q-10 -14 -53 -15q-34 0 -43 4q-11 5 -22.5 15t-15.5 19q-7 15 -4 26.5t22 50.5q34 70 60 133q39 96 90.5 209t67.5 137q22 32 92 44q26 4 28 4q11 0 18 -6q17 -12 18.5 -38t-14.5 -36q-9 -5 -34 -8
q-5 -1 -14 -3t-14 -3t-7 -1q-7 -2 -10.5 -8.5t-17.5 -43.5q-100 -255 -139 -345z" />
    <glyph glyph-name="backslash" unicode="\" horiz-adv-x="138" 
d="M87 477q7 -33 37 -388q5 -61 1 -69q-11 -21 -45 -21q-9 0 -18 3q-19 6 -25 15.5t-8 41.5q-10 121 -16 274.5t-1 167.5q5 16 31 16q36 -3 44 -40z" />
    <glyph glyph-name="bracketright" unicode="]" horiz-adv-x="434" 
d="M420 555q7 -19 1.5 -34.5t-34.5 -61.5q-127 -204 -205 -429q-8 -24 -18 -50q-11 -23 -44 -27q-13 -1 -34 -6q-14 -3 -21 -3q-16 0 -30.5 12t-20.5 27q-10 23 0 39q8 12 48 19l22 4l16 44q77 219 187 392l17 27h-8q-24 0 -38 28q-8 17 -5.5 31t14.5 19q8 2 42.5 6t52.5 4
q42 0 58 -41z" />
    <glyph glyph-name="underscore" unicode="_" horiz-adv-x="328" 
d="M301 0q-8 -4 -136 -5h-67q-62 0 -69 4q-16 10 -18.5 34.5t11.5 35.5q8 6 24 9q44 8 185 8q50 0 61.5 -3t19.5 -17q8 -16 4.5 -38t-15.5 -28z" />
    <glyph glyph-name="a" unicode="a" horiz-adv-x="391" 
d="M195 88q-86 -86 -127 -86t-62 38q-8 14 -9 47q-1 32 4 51q19 72 80 135.5t130 63.5q46 0 79 -31l14 -12q14 36 35 36q14 0 29 -15q14 -15 12 -35q-3 -20 -61.5 -150t-66.5 -136q-7 -5 -19 -5q-4 0 -12 2q-35 13 -38 40q-2 8 14 42l15 33zM82 145q-18 -38 -18 -62
q1 -7 2 -7q2 0 3 1q21 10 114 109q58 65 74 71q13 6 -8 10l-4 1q-4 1 -13 1q-39 0 -83 -36t-67 -88z" />
    <glyph glyph-name="b" unicode="b" horiz-adv-x="397" 
d="M18 160q49 102 48 110q-2 9 2 18t11 11q6 2 53 93q47 94 54 101q8 10 19 10q35 -2 45 -39q3 -11 -1.5 -25.5t-25.5 -61.5q-22 -48 -22 -50q-1 -2 3 -3t13 -2q63 -6 104 -45q39 -37 36 -89q-1 -23 -11 -43q-64 -127 -260 -131q-35 -2 -42 -5q-8 -4 -18 -4q-13 0 -28 8
t-21 19q-8 10 -8 19q0 8 49 109zM126 169l-34 -72l16 2q17 2 41 7q56 15 91 49q42 39 44 62q0 15 -24 22t-44 7q-2 0 -8 -0.5t-9 -0.5q-30 -2 -33 -3q-6 -1 -40 -73z" />
    <glyph glyph-name="c" unicode="c" horiz-adv-x="338" 
d="M53 28q-65 57 -33 150q24 71 81 120t115 49q11 0 17 -1q47 -7 74 -41t19 -77q-6 -42 -30 -42q-15 0 -30 18q-16 19 -8 39q4 12 4 17q0 6 -9 6q-58 0 -101 -45q-36 -37 -52 -85t1 -64q5 -6 17 -6q41 0 85 61q13 19 20 24.5t17 5.5q20 0 37.5 -20t11.5 -36
q-3 -8 -19.5 -31.5t-26.5 -33.5q-42 -45 -98 -45q-50 0 -92 37z" />
    <glyph glyph-name="d" unicode="d" horiz-adv-x="398" 
d="M455 469q1 -7 -8 -26.5t-36.5 -76t-52.5 -113.5q-116 -257 -124 -263t-19 -6q-6 0 -8 1q-15 4 -31 18l-9 10l-15 -6q-21 -9 -38 -9q-34 0 -61.5 29t-37.5 64q-11 46 -1 88q16 67 68.5 115.5t118.5 50.5q48 0 74 -22q8 -8 11 -8q0 9 48.5 93.5t58.5 95.5q5 5 12 5
q19 0 33 -10.5t17 -29.5zM203 143l49 100l-5 7q-5 7 -5 12t-8 5t-14 -2q-39 -9 -71 -39q-29 -27 -45 -66.5t-9 -67.5l1 -7l23 12q17 10 53 29z" />
    <glyph glyph-name="e" unicode="e" horiz-adv-x="354" 
d="M250 343q34 -8 58 -37.5t24 -64.5q0 -42 -36 -72.5t-79 -30.5q-25 0 -52.5 11t-37.5 25l-4 7l-8 -13q-21 -33 -21 -62q0 -16 8 -24q18 -19 46 -19q26 0 54 24q25 20 37 20t25 -11.5t16 -25.5q3 -13 -1 -22t-20 -24q-40 -40 -89 -40q-7 0 -23 2q-48 9 -93 54
q-51 56 -31 132q6 25 27.5 59.5t44.5 57.5q61 58 126 58q17 0 29 -4zM255 249q7 11 6.5 14t-10.5 3h-9q-17 -1 -41 -12q-42 -23 -42 -32q0 -14 36 -14q37 9 60 41z" />
    <glyph glyph-name="f" unicode="f" horiz-adv-x="403" 
d="M256 317q25 -13 31.5 -40t-13.5 -34q-8 -3 -44 -6q-38 -3 -42 -7q-8 -15 -23 -53q-8 -20 -37 -88q-3 -8 -12 -30t-11 -29q-10 -22 -18 -30q-9 -10 -20 -10q-12 0 -18 3q-32 12 -39 45q-3 19 23 78q6 12 18 40.5t15 34.5l16 37l-7 7q-22 24 -12 46q7 11 37 18l16 5l26 52
q54 111 104 137q18 8 34 8q34 0 56 -22q19 -21 19 -40q0 -22 -10 -25q-5 -3 -12 -3t-15 4q-2 2 -7 2q-16 0 -36 -25t-33 -49q-4 -7 -5.5 -11t-1.5 -6.5t1.5 -3.5t5.5 -1t14 -4z" />
    <glyph glyph-name="g" unicode="g" horiz-adv-x="397" 
d="M387 294q8 -14 6 -28.5t-16 -52.5q-52 -138 -93 -236q-22 -56 -47 -93q-23 -35 -64 -59t-81 -24q-35 0 -73 24.5t-38 56.5q0 27 22 27q13 0 32 -10q22 -10 23 -10q23 0 49 14q40 21 72 81q36 70 32 72q-2 2 -16 -11q-64 -56 -103 -56q-28 0 -52 21t-35 57q-25 84 47 196
q24 38 68 71.5t83 33.5q67 0 103 -66q7 -14 9 -14q3 3 5 7q9 11 13 15q6 7 13 7h7q21 -2 34 -23zM212 165l56 54l-2 15q-6 57 -35 57q-18 0 -47 -20q-39 -26 -70.5 -80t-34.5 -102q-1 -29 4 -29q13 0 58 39.5t71 65.5z" />
    <glyph glyph-name="h" unicode="h" horiz-adv-x="428" 
d="M343 344q29 -15 45 -44q25 -50 0 -121q-13 -36 -47 -106.5t-42 -75.5q-5 -4 -15 -4t-18 4q-16 7 -28 27t-10 37q1 11 31 70q50 96 55 123q1 7 -1 7h-4q-22 -5 -58 -29.5t-65 -53.5q-43 -43 -77 -111q-25 -50 -33.5 -60.5t-25.5 -10.5q-22 0 -41.5 17t-19.5 36
q0 20 68 156q77 158 83 171q53 113 66 126q6 6 16 6q13 0 26.5 -11t18.5 -27q5 -19 -9 -53q-2 -3 -8 -16t-11.5 -26t-9.5 -21l-13 -34q0 -1 3.5 1l10.5 6l32 16q19 8 43 8t38 -7z" />
    <glyph glyph-name="i" unicode="i" horiz-adv-x="236" 
d="M201 500q2 1 7 1q18 0 34.5 -17.5t16.5 -36.5q0 -8 -16.5 -46t-23.5 -45q-8 -8 -20 -8q-4 0 -12 2q-23 8 -36 34q-11 24 10 66q21 44 40 50zM73 5q-9 -16 -30 -16q-8 0 -19 3q-16 6 -29.5 22.5t-13.5 30.5q0 15 60 146t75 144q7 6 13 6h7q28 -3 41 -29q11 -20 -2 -57
q-12 -34 -53 -135t-49 -115z" />
    <glyph glyph-name="j" unicode="j" horiz-adv-x="261" 
d="M250 496q17 0 31.5 -14t17.5 -33q2 -11 -4 -23q-4 -10 -19.5 -37.5t-19.5 -31.5q-4 -3 -14 -3q-9 0 -15 3q-27 11 -34 43q-3 13 8.5 40t26.5 44q12 12 22 12zM227 286q0 -16 -35 -105q-25 -65 -54 -131.5t-78 -155t-83 -113.5q-31 -23 -75 -24q-32 0 -52.5 9t-41.5 33
q-8 9 -16.5 27t-8.5 26q0 24 22 24t46 -26q10 -10 16 -10h6q26 3 46 28q28 34 57 88t114 229q63 131 71 140q9 13 20 13q17 0 31.5 -17.5t14.5 -34.5z" />
    <glyph glyph-name="k" unicode="k" horiz-adv-x="403" 
d="M385 311q-46 -36 -123 -103l-14 -13l3 -33q8 -90 49 -131q8 -7 10.5 -18t-2.5 -19q-9 -12 -28 -12q-11 0 -26 5q-28 11 -51.5 45.5t-31.5 67.5l-4 12l-15 -21q-18 -21 -32 -54q-14 -29 -21 -35.5t-23 -6.5q-25 0 -45.5 18t-20.5 40q0 12 67 148t92 182q51 99 63.5 118.5
t26.5 19.5q21 0 36 -17.5t15 -38.5q0 -20 -42 -111q-18 -43 -18 -44q1 0 21 16q78 69 102 69q8 0 18 -7q13 -10 18.5 -26t-0.5 -28q-1 -4 -24 -23z" />
    <glyph glyph-name="l" unicode="l" horiz-adv-x="281" 
d="M279 443q-7 -33 -76 -171q-29 -58 -57.5 -123.5t-25.5 -68.5q2 -2 11 2q8 2 12 2q19 0 34 -15t14 -34q0 -20 -30 -35t-53 -15q-29 0 -55.5 17.5t-36.5 44.5q-14 34 0 85q22 77 100 220q55 103 71.5 130t25.5 32q6 3 14 3q17 0 32.5 -14t20.5 -33q3 -12 -1 -27z" />
    <glyph glyph-name="m" unicode="m" horiz-adv-x="655" 
d="M601 330q41 -41 31 -95q-9 -35 -50 -102q-38 -60 -60 -109q-14 -30 -32 -30q-20 0 -38 19.5t-18 41.5q0 12 12 35q19 37 60 101q38 59 43 76l4 9l-12 -1q-50 -7 -136 -94t-125 -151q-11 -24 -20 -30q-6 -3 -15 -3q-16 0 -32.5 10.5t-23.5 26.5q-6 14 -0.5 29t29.5 53
q17 26 47.5 79t33.5 61q4 8 2 10q-1 0 -11 -5q-44 -24 -118 -108t-105 -146q-14 -28 -19 -33q-7 -5 -25 -5q-8 0 -16 2q-17 7 -27.5 20.5t-9.5 26.5q2 19 118 248q35 68 45.5 84t22.5 16h5q22 -2 34 -22.5t5 -43.5l-2 -4l-1 -3v-1q1 0 26 18q44 34 79 34q47 0 70 -48l9 -18
l4 5q17 17 63 47q44 28 85 28q9 0 13 -1q33 -6 55 -27z" />
    <glyph glyph-name="n" unicode="n" horiz-adv-x="410" 
d="M375 332q31 -32 24.5 -77t-53.5 -126q-4 -8 -20.5 -37.5t-24.5 -44.5q-28 -52 -34 -58q-10 -8 -22 -8q-15 0 -30 12.5t-23 26.5q-12 24 3 50q14 29 70 125q33 55 31 58q-1 1 -30 -19.5t-46 -34.5q-31 -27 -87 -92.5t-71 -93.5q-12 -23 -30 -23q-22 0 -41 18.5t-19 39.5
q0 13 59 148q47 105 63.5 137t26.5 36q6 2 11 2q25 0 41 -27q13 -21 0 -57q-7 -17 -4 -17q1 0 1 0.5t1 0.5q5 3 8 7q20 23 69 51.5t75 28.5q28 0 52 -26z" />
    <glyph glyph-name="o" unicode="o" horiz-adv-x="363" 
d="M304 271q16 -21 17.5 -43.5t-10.5 -58.5q-20 -63 -61.5 -114.5t-83.5 -65.5q-12 -5 -37 -5q-44 0 -75.5 29.5t-40.5 74.5q-7 35 4.5 84.5t37.5 90.5q25 40 67 70t84 30q24 0 39 -7q11 -7 24 -17q9 -9 19 -27t10 -26q0 -5 6 -15zM216 175q26 50 26 74q1 7 -5 19.5t-9 12.5
q-5 0 -23 -9q-32 -15 -59.5 -51.5t-40.5 -74.5q-18 -55 -8 -76q2 -4 7 -4q6 0 24 8q49 21 88 101z" />
    <glyph glyph-name="p" unicode="p" horiz-adv-x="421" 
d="M283 336q52 0 82 -34.5t30 -87.5q0 -78 -72 -174q-51 -67 -105 -67q-27 0 -44 10q-18 8 -38 30.5t-27 42.5q-4 10 -5 10t-14 -26q-105 -223 -106 -225q-8 -17 -33 -17q-37 0 -54 33q-8 13 -4.5 26.5t24.5 57.5q33 70 54 114q88 187 139 278q16 27 23.5 35t16.5 8
q14 0 25 -7q19 -15 22 -26q1 -1 2 -1q6 0 22 7q35 13 62 13zM321 237q2 13 -3 17q-6 2 -17 2q-48 0 -106 -37l-20 -13l1 -12q2 -13 -3 -40q-10 -73 5 -91q5 -5 11 -5q37 0 82 68.5t50 110.5z" />
    <glyph glyph-name="q" unicode="q" horiz-adv-x="379" 
d="M71 -32q-4 -1 -13 -1q-40 0 -67.5 30.5t-27.5 75.5q0 54 35.5 119.5t94 113.5t115.5 48q27 0 54.5 -13t42.5 -34l4 -6l10 11q10 10 15 10q4 0 7 -1q18 -1 31.5 -16.5t13.5 -33.5q0 -16 -13 -43q-70 -158 -178 -385q-35 -74 -42 -78q-4 -2 -17 -2q-23 0 -43 14.5t-20 36.5
q0 12 106 226l-22 -19q-49 -48 -86 -53zM52 50l8 5q1 1 28 23q17 17 47 49q23 29 63 72t51 43h8l-2 28l-15 1q-57 0 -118 -74t-68 -133z" />
    <glyph glyph-name="r" unicode="r" horiz-adv-x="345" 
d="M24 82q16 36 31 71q59 138 70 160t21 23q27 0 39 -23l3 -7l16 12q43 36 86 36q29 -4 49.5 -24.5t22.5 -48.5q1 -15 -5 -21t-15 -6q-14 0 -29 17q-8 11 -14 11q-5 0 -23.5 -10t-30.5 -19q-34 -26 -74 -75q-29 -38 -39 -55t-27 -61q-19 -51 -24 -58q-6 -10 -20 -10t-28 9
t-19 21q-9 17 10 58z" />
    <glyph glyph-name="s" unicode="s" horiz-adv-x="326" 
d="M-38 67q-2 48 26 48q13 0 24.5 -13.5t11.5 -28.5q0 -9 5 -10q3 -1 13 -1q38 0 75 14q13 5 28.5 15t25 19t6.5 11q-4 4 -54 17q-42 10 -64.5 29.5t-22.5 57.5q0 22 6 33q23 40 73.5 66t98.5 26q35 0 65 -21.5t36 -55.5q4 -23 -5.5 -42t-23.5 -19q-16 0 -25 20q-8 17 -3 29
q2 6 -5 8q-10 2 -24 2q-62 0 -106 -41q-4 -4 -6.5 -7t-3 -4t0.5 -2q1 0 27 -6q86 -23 106 -79q12 -34 -3 -66q-17 -36 -58.5 -56t-88.5 -25q-10 -2 -24 -2t-24 2q-38 5 -62 25.5t-25 56.5z" />
    <glyph glyph-name="t" unicode="t" horiz-adv-x="280" 
d="M16 144q14 45 57 133q21 42 19 49q-16 41 25 53q7 2 11 7.5t15 27.5q37 72 55 86q6 5 16 5q17 0 34 -15t21 -35q1 -12 -5 -28q-7 -17 -7 -19t14 -2t22 -8q18 -15 21 -39q5 -38 -26 -41q-14 -3 -44 -6l-35 -5l-5 -10q-24 -40 -63 -122.5t-39 -101.5q0 -2 13 -2
q18 0 31.5 -13t14.5 -32q1 -14 -7 -22q-21 -24 -56 -24q-25 0 -46.5 17.5t-33.5 42.5q-8 16 -8 50t6 54z" />
    <glyph glyph-name="u" unicode="u" horiz-adv-x="388" 
d="M95 -36q-31 0 -58 17.5t-37 45.5q-16 42 14 120q15 39 52 110t49 83q8 8 18 8q4 0 18 -4q25 -9 33 -33q4 -10 -5.5 -35t-55.5 -125q-34 -74 -37 -103l-1 -14l13 6q43 16 89 90.5t73 139.5q12 30 20 39q11 10 30 12q12 2 18 2q2 0 4 -1h3q13 -3 24 -16t12 -26
q0 -8 -30 -75q-48 -102 -66 -165q-8 -29 -13.5 -37.5t-16.5 -10.5q-25 0 -41 11q-4 2 -5 2q-3 0 -16 -10q-41 -31 -88 -31z" />
    <glyph glyph-name="v" unicode="v" horiz-adv-x="365" 
d="M87 -24q-13 5 -25 18t-16 26q-16 53 34 259q14 56 20.5 69.5t20.5 13.5q16 0 30 -12t18 -29q3 -14 -14 -102q-11 -56 -13 -66v-3q4 0 21 24q77 105 99.5 132t33.5 31q3 1 8 1q16 0 31 -12t19 -29q4 -16 -11 -31q-17 -18 -87 -115q-120 -166 -141 -175q-7 -3 -13 -3
q-4 0 -15 3z" />
    <glyph glyph-name="w" unicode="w" horiz-adv-x="459" 
d="M39 19q-6 10 -5 28q2 32 23 98q15 43 44.5 105.5t41.5 76.5q11 14 25 14q4 0 12 -2q13 -5 22.5 -17t9.5 -23q0 -6 -12 -30q-20 -41 -42 -96l-5 -12l38 36q31 29 41.5 37.5t19.5 8.5q1 0 3 -0.5t3 -0.5q17 -2 30.5 -16t14.5 -31q1 -11 -17 -82q-1 -6 7 7q36 61 68 134
q24 53 33 62q5 5 15 5q15 0 27.5 -14t12.5 -29q0 -17 -28 -76q-101 -211 -151 -233q-8 -3 -19 -3q-25 0 -42.5 17.5t-17.5 42.5q0 35 6 59q1 3 0.5 3t-2.5 -2l-26 -28q-47 -56 -64 -64q-10 -4 -16 -4q-33 0 -50 29z" />
    <glyph glyph-name="x" unicode="x" horiz-adv-x="387" 
d="M-25 48q37 47 130 114l8 6l-3 29q-4 49 0 89q4 38 15 49q7 6 19 6q29 0 44 -22l7 -10l1 -37v-41q1 -3 15 6t67 46q48 33 61 33h2q14 -2 24.5 -13.5t11.5 -26.5q0 -11 -2 -19q-7 -14 -140 -112l-28 -20l4 -20q4 -21 14.5 -55t14.5 -41q8 -14 1 -25q-7 -15 -26 -15
q-4 0 -14 2q-21 7 -37.5 32t-23.5 51l-6 14q-5 0 -60 -49q-46 -40 -64 -44q-18 0 -33 15q-28 28 -2 58z" />
    <glyph glyph-name="y" unicode="y" horiz-adv-x="360" 
d="M41 15q-47 37 -22 109q18 54 62 126.5t66 83.5q10 4 15 4q17 0 33 -11.5t20 -27.5q2 -9 -2.5 -19.5t-25.5 -41.5q-68 -109 -70 -126q15 6 120 116q71 73 74 75q9 3 15 3q3 0 10.5 1t10.5 2q33 0 45 -33q5 -12 1 -23q-4 -18 -48 -90q-78 -125 -142 -272q-34 -76 -42 -92
t-16 -26q-13 -14 -23 -14q-2 0 -10 2q-11 5 -15 7q-18 13 -22 30q-2 6 -2 10q-2 5 3.5 28.5t12.5 39.5q53 119 69 148q6 12 6 13t-3.5 -1.5t-11.5 -7.5q-31 -23 -56 -27q-4 -1 -12 -1q-22 0 -40 15z" />
    <glyph glyph-name="z" unicode="z" horiz-adv-x="408" 
d="M162 240q-17 0 -28.5 15.5t-11.5 32.5q0 12 8 20q17 17 91 30.5t117 13.5q28 0 44 -16t16 -45q0 -20 -12 -32.5t-66 -48.5q-45 -32 -50 -36q-12 -9 -35 -28.5t-40.5 -34.5t-16.5 -16q8 0 28 4q65 10 93 10q30 0 46 -8q18 -9 27 -28.5t2 -35.5q-6 -16 -29 -18
q-115 -15 -127 -17q-74 -11 -133 -31q-36 -12 -50 -12q-15 0 -29.5 12.5t-20.5 27.5q-7 22 1 39q7 16 61 69t116 107q34 29 34 30h-3q-2 -1 -7 -1.5t-9 -0.5q-14 -2 -16 -2z" />
    <glyph glyph-name="braceleft" unicode="{" horiz-adv-x="392" 
d="M358 503q-9 0 -24 -16q-26 -26 -70 -98q-55 -92 -97 -126l-13 -9l7 -15q13 -35 4 -70q-2 -10 -25.5 -61.5t-30.5 -63.5l-4 -11l11 -10q17 -17 17.5 -35t-15.5 -26q-6 -3 -20 -3q-10 0 -20 2q-29 9 -48.5 33t-19.5 52q0 18 6.5 36.5t31.5 67.5q27 56 29.5 62.5t-3.5 10.5
q-21 10 -31 33q-5 8 -5 23q0 20 24 32q35 18 61.5 46.5t66.5 90.5q66 101 105 125q16 10 34 10q37 0 51 -39q5 -16 -1.5 -28.5t-20.5 -12.5z" />
    <glyph glyph-name="bar" unicode="|" horiz-adv-x="308" 
d="M10 24q0 10 99.5 243t119.5 264q12 18 24 18q7 0 18 -6q24 -11 27 -35q2 -15 -17.5 -67.5t-107.5 -266.5q-57 -141 -66 -162.5t-17 -26.5q-6 -5 -22 -5q-20 0 -39 12.5t-19 31.5z" />
    <glyph glyph-name="braceright" unicode="}" horiz-adv-x="356" 
d="M283 227q-2 -10 -16 -19q-17 -11 -27.5 -29t-31.5 -70q-35 -87 -58 -118q-14 -17 -41.5 -31t-49.5 -14q-18 0 -33.5 16t-15.5 34q0 10 4.5 15.5t21.5 13.5q16 8 30 22q25 23 57 105q32 84 56 109q11 12 12 15t0 10q-7 24 1 57q4 17 51 108q25 48 25 54q0 5 -7 10
q-7 4 -15 15q-14 22 -8 38.5t27 16.5h6q30 -4 52.5 -34t22.5 -67q0 -24 -9 -47.5t-41 -86.5q-16 -31 -26 -54q-3 -13 4 -25q15 -27 9 -44z" />
    <glyph glyph-name="exclamdown" unicode="&#xa1;" horiz-adv-x="312" 
d="M228 434q21 -12 24 -32q2 -13 -13.5 -55t-68.5 -168q-33 -79 -54 -132q-24 -59 -33 -63q-6 -3 -14 -3q-20 0 -38 16t-21 36q-1 10 63 159q70 163 87 199.5t27 43.5q7 5 16 5q13 0 25 -6zM260 445q-20 0 -35 13.5t-15 31.5q0 8 10.5 30.5t17.5 27.5q5 5 15 5q11 0 19 -5
q22 -10 28 -31q3 -10 -3 -27q-8 -26 -16 -35.5t-21 -9.5z" />
    <glyph glyph-name="cent" unicode="&#xa2;" horiz-adv-x="328" 
d="M11 136q-6 40 22 97q23 49 62.5 86.5t79.5 50.5q17 5 19 10q13 37 27 56q13 21 29 21t29 -16t13 -32q0 -12 -11 -28l-10 -17l17 -17q37 -37 29 -84q-6 -36 -25 -36l-2 1h-3q-14 3 -23 16.5t-9 32.5v15l-18 -1q-43 -2 -86.5 -47t-57.5 -101q-7 -25 7 -32q2 -1 7 -1
q19 0 67 44q26 25 40 25q16 0 31 -14.5t15 -31.5q0 -13 -22 -38t-49 -43q-27 -19 -56 -20q-16 -2 -17 -4l-18 -38q-16 -34 -22 -38q-8 -4 -12 -4q-5 0 -17 5q-24 13 -27 35q-2 12 16 59l10 24l-8 7q-21 21 -27 58z" />
    <glyph glyph-name="sterling" unicode="&#xa3;" horiz-adv-x="505" 
d="M345 135q26 -27 7 -66q-22 -45 -52 -57t-86 -12q-34 0 -67 3q-18 2 -39 2q-19 0 -31 -2l-22 -2q-8 0 -14 5q-8 4 -18 18.5t-12 22.5q-2 11 7.5 26t49.5 63q27 32 49 71l8 13l-7 13q-10 20 -2 36q7 12 31 18q13 3 14 8q3 8 27.5 56.5t33.5 64.5q37 59 85 92.5t97 34.5
q37 0 61.5 -24.5t29.5 -67.5q2 -19 -5 -42.5t-18 -31.5q-5 -4 -12 -4q-18 0 -29 23q-7 14 0 47q3 14 1 16q-1 1 -3 1q-20 0 -52 -15q-51 -24 -99 -117l-13 -26h25q32 0 42 -15q10 -14 9.5 -29.5t-10.5 -23.5q-7 -5 -62 -11q-39 -3 -41 -6l-2 -5q-2 -5 -6.5 -14t-7.5 -16
q-25 -49 -51 -84l-11 -14l19 -2q5 -1 18 -1q91 0 117 52q6 13 22 13q8 0 19 -11z" />
    <glyph glyph-name="yen" unicode="&#xa5;" horiz-adv-x="489" 
d="M155 274q-30 25 -64 181q-13 60 -1 76q9 11 24 11q17 0 34 -14q10 -8 14 -16.5t17 -45.5q14 -45 38 -103l6 -19l25 27q33 35 97 86t88 51q14 0 26.5 -12.5t17.5 -29.5q4 -16 -6 -29.5t-60 -59.5q-43 -39 -78 -75.5t-33 -39.5q0 -2 8 -4q13 -2 21.5 -15t8.5 -30
q0 -25 -13 -31q-5 -3 -19 -3q-8 0 -54 4q-3 0 -6 0.5t-4 0.5q-3 -1 -3 -2q1 -3 13 -3q19 0 29 -11q11 -11 12.5 -30t-8.5 -29q-5 -5 -11.5 -6t-41.5 -2l-45 -1l-24 -44q-22 -39 -29 -48.5t-15 -13.5q-7 -3 -12 -3l-10 2q-21 8 -33 25q-23 33 -6 69l7 14h-15q-15 0 -23 7
q-16 13 -17 35.5t15 27.5q6 3 46 7q38 4 39 5q-11 1 -25 1q-23 0 -32.5 3.5t-16.5 13.5q-11 17 -8.5 34.5t16.5 20.5q17 5 90 10l29 1z" />
    <glyph glyph-name="section" unicode="&#xa7;" horiz-adv-x="497" 
d="M369 73q-37 -76 -210 -76q-122 12 -144 70q-10 26 -1.5 62t29.5 59q14 14 24 14q9 0 22 -11q28 -24 10 -50q-21 -29 -21 -41q0 -11 65 -11q89 0 146 30l15 8l-8 7q-24 20 -71 38q-57 20 -79 43q-23 25 -13 62q5 23 9 31.5t15 18.5l13 12l-6 7q-20 21 -24.5 49t7.5 51
q17 34 85 61.5t132 27.5q105 0 122 -80q5 -27 -6 -51q-8 -14 -25 -28t-28 -14q-10 0 -18 11.5t-8 26.5q0 18 12 30q7 7 3 10q-9 6 -44 6q-26 0 -51 -5q-32 -7 -66 -20t-34 -19q0 -2 34 -13.5t38 -11.5t30.5 -11t36.5 -17q31 -18 47 -44t12 -54q-6 -40 -41 -61l-17 -10
q4 -8 8 -18q8 -16 8 -45q0 -28 -8 -44zM316 265l11 3l-21 9q-32 14 -41 14q-11 0 -39 -14l-14 -6l17 -8q18 -9 31 -9q19 0 56 11z" />
    <glyph glyph-name="copyright" unicode="&#xa9;" horiz-adv-x="515" 
d="M493 408q1 -11 7 -32q6 -13 4 -29q-8 -76 -56 -157t-124.5 -137.5t-154.5 -56.5h-19l-12 1q-52 13 -87 51q-34 37 -40 93.5t18 121.5q37 102 129.5 190t188.5 88q58 0 98 -37t48 -96zM429 403q6 13 -2 31q-12 24 -44 25q-49 0 -98 -28t-85 -69l-9 -11l14 12q43 34 78 34
t56.5 -22.5t21.5 -56.5q0 -51 -26 -51q-14 0 -26.5 13t-12.5 30l-1 12q-9 0 -41 -30q-24 -23 -37 -56q-1 -6 0 -6l4 2q11 4 36 23q14 11 20 11q3 0 5 -1q16 -3 27 -15t12 -27q0 -10 -5.5 -17t-30.5 -28q-32 -27 -55 -27q-38 0 -64 25q-23 24 -27 48.5t10 62.5l5 14
q-4 0 -22 -38q-45 -92 -32 -152q8 -39 41 -39q58 0 126 53q59 45 102 111t53 134q4 27 7 33z" />
    <glyph glyph-name="guillemotleft" unicode="&#xab;" horiz-adv-x="479" 
d="M162 272q-21 -8 -28 -11q-1 -1 1.5 -3t9.5 -7q26 -15 56.5 -41.5t37.5 -39.5q8 -16 4.5 -36.5t-15.5 -29.5q-6 -3 -10 -3q-21 0 -92 53q-59 44 -92 58q-17 8 -22 43q-7 44 18 60q9 6 88.5 42.5t116.5 51.5q95 39 123 39q11 0 16 -5q21 -20 15 -52q-3 -14 -12 -21.5
t-40 -20.5q-116 -52 -175 -77zM391 170q-2 -10 -9.5 -17t-14.5 -7q-9 0 -47.5 20t-51.5 29q-29 18 -36 26.5t-7 27.5q0 15 4 22t19 17q27 18 98.5 52t93.5 34q3 0 9 -2q18 -7 20 -34t-14 -40q-4 -3 -54 -29l-47 -23l9 -7q40 -28 28 -69z" />
    <glyph glyph-name="registered" unicode="&#xae;" horiz-adv-x="452" 
d="M439 382q5 -65 -5 -98q-26 -97 -104.5 -182t-169.5 -85q-44 0 -81.5 27.5t-54.5 69.5q-34 83 11 197q31 84 106.5 157.5t155.5 73.5q65 0 101.5 -46t40.5 -114zM251 304v-3q1 0 6 3q8 3 16 11q12 9 16 25q2 6 -4 6t-18 -16t-16 -26zM323 246l9 16l-8 -7q-8 -8 -25.5 -16
t-28.5 -10q-14 -2 -14 -4q0 -4 11 -20.5t14 -16.5t19.5 24t22.5 34zM373 381q5 7 1 31t-11 34q-13 13 -35 13q-63 0 -130.5 -71.5t-92.5 -165.5q-6 -21 -6.5 -55t5.5 -48q9 -22 34 -22q40 0 89 38l14 11l-13 13q-14 16 -22 32l-9 18l-5 -13q-9 -18 -22 -18q-11 0 -27 14
q-22 21 -14 45q14 36 54 102q20 31 20 35q0 10 10.5 20t27.5 16q11 3 24 3q33 0 59.5 -22.5t30.5 -54.5q2 -10 3 -10t7 27q3 18 8 28z" />
    <glyph glyph-name="degree" unicode="&#xb0;" horiz-adv-x="269" 
d="M255 473q9 -23 1 -50q-13 -51 -60.5 -91t-99.5 -40q-12 0 -16 1q-12 1 -32 10q-63 32 -25 110q20 42 62.5 73t87.5 31q63 0 82 -44zM193 440q6 21 -1 32q-10 0 -34 -14q-29 -16 -52.5 -47.5t-23.5 -61.5l2 -11h2q1 1 4.5 2t7.5 2q31 11 58.5 39t36.5 59z" />
    <glyph glyph-name="twosuperior" unicode="&#xb2;" horiz-adv-x="235" 
d="M172 344q50 -4 52 -40q1 -22 -7 -30q-5 -5 -45 -5q-58 0 -121 -9q-11 0 -16 2q-21 10 -25 46q-1 13 5 23q11 21 78 71q53 43 53 47q-4 0 -16 -4q-9 -3 -16 -3q-10 0 -20 10q-12 12 -14 27.5t7 24.5q20 17 66 17q46 -7 64 -48q15 -29 0 -60q-14 -25 -48 -53l-18 -15z" />
    <glyph glyph-name="threesuperior" unicode="&#xb3;" horiz-adv-x="218" 
d="M208 476q0 -13 -6 -21.5t-26 -26.5l-23 -20l11 -6q26 -17 36 -48.5t-3 -57.5q-13 -29 -48.5 -45.5t-72.5 -16.5q-61 0 -66 52q-1 13 5 23q7 9 17 9q2 0 18 -2q7 -1 17 -1q14 0 37.5 6.5t29.5 14.5q2 3 -7 5q-13 4 -38 4q-19 0 -23.5 1t-10.5 7q-19 18 -14 43q2 12 35 40
q11 10 9 10h-4l-22 -4q-6 0 -13 5q-15 12 -15.5 34t14.5 30q21 11 81 12l40 2l15 -8q27 -16 27 -41z" />
    <glyph glyph-name="periodcentered" unicode="&#xb7;" horiz-adv-x="115" 
d="M99 282q7 -15 6 -27q-2 -14 -5 -17q-5 -5 -25 -15.5t-24 -10.5q-17 0 -29 17.5t-12 35.5q0 14 6 20q5 6 24 14t27 8q19 0 32 -25z" />
    <glyph glyph-name="onesuperior" unicode="&#xb9;" horiz-adv-x="174" 
d="M162 478q4 -10 0.5 -22t-22.5 -53q-57 -124 -66 -131q-6 -5 -16 -5q-14 0 -27.5 10.5t-18.5 23.5q-4 9 0 21t23 49q25 50 25 52q0 1 -5 1q-6 0 -14.5 7.5t-12.5 16.5q-10 18 -3 32q5 10 55 36q18 8 26 8q11 0 22 -10q3 -2 10.5 -8.5t9.5 -8.5q9 -7 14 -19z" />
    <glyph glyph-name="guillemotright" unicode="&#xbb;" horiz-adv-x="435" 
d="M115 375q-17 14 -16 41t18 33q2 1 7 1q14 0 87 -36q147 -73 192 -115q13 -12 17.5 -24t4.5 -36q0 -26 -9 -36t-46 -24q-9 -3 -34.5 -13t-34.5 -13q-84 -34 -171 -79q-65 -34 -90 -34q-6 0 -16 10q-20 20 -13 47q5 20 54 50l41 25q-52 -16 -65 -16q-9 0 -15 7
q-20 24 -7 52q5 11 11.5 15.5t31.5 14.5q28 11 27 14q-2 1 -20 11q-26 12 -30 37q-4 22 9 37q7 7 14 7h7q14 -1 62 -26q46 -23 59.5 -31.5t18.5 -19.5q13 -25 2 -49l-3 -8l20 8q44 16 49 18q29 9 31 11q1 1 -13 10t-41 25q-131 78 -139 86z" />
    <glyph glyph-name="questiondown" unicode="&#xbf;" horiz-adv-x="446" 
d="M386 427q-17 0 -31.5 13.5t-17.5 31.5q-1 11 12 40q14 29 16 38q3 18 24 18q13 0 25.5 -11t18.5 -24q7 -18 -6 -59q-9 -27 -17.5 -37t-23.5 -10zM26 51q-17 35 -16 81q2 33 32 73q23 24 110 78q84 48 134 103q14 19 25 30q7 7 19 7q5 0 7 -1q20 -6 29 -29q11 -23 -7 -58
q-30 -62 -160 -141q-82 -48 -105 -73q-11 -11 -11 -22q0 -17 23.5 -34.5t57.5 -26.5q21 -6 59 -6q69 0 114 39q29 27 29 51q0 19 -17 29q-19 10 -27 29.5t3 31.5q5 5 13 5q28 0 55 -30q44 -49 36 -105q-12 -67 -71.5 -102.5t-133.5 -35.5q-40 0 -62 5q-97 26 -136 102z" />
    <glyph glyph-name="Agrave" unicode="&#xc0;" horiz-adv-x="393" 
d="M325 557q-10 5 -17.5 17t-25.5 50q-23 51 -25.5 64.5t9.5 22.5q11 8 26 8q16 0 29 -11q9 -8 37.5 -63.5t28.5 -64.5q1 -12 -11.5 -19.5t-29.5 -7.5q-13 0 -21 4zM393 478q4 -15 -14 -107q-12 -61 -43 -207t-34 -154q-7 -16 -33 -16q-16 0 -33.5 11t-20.5 25q-1 6 10 56
l11 48l-11 15q-18 21 -27 29l-16 16l-70 -94q-54 -73 -66 -86t-25 -13q-19 0 -36 17q-26 25 -14 46q8 15 112 150l33 44l-23 21q-22 22 -22 31q0 10 10 18q13 12 34 12q18 0 34 -10q2 -1 4 -2.5t3.5 -2t3 -1.5t2.5 -2h1q3 0 41 50q68 89 88 110.5t32 23.5q21 4 30 4
q12 0 24.5 -10.5t14.5 -21.5zM269 281q9 40 9 41q-1 0 -23 -29l-21 -30l12 -10q11 -11 13 -11q1 0 10 39z" />
    <glyph glyph-name="Aacute" unicode="&#xc1;" horiz-adv-x="413" 
d="M392 691q12 -7 18.5 -22.5t1.5 -26.5q-6 -16 -108 -95q-22 -17 -31 -17q-7 0 -15 4q-24 15 -24 41q0 17 23 35q64 52 105 78q11 7 18 7q5 0 12 -4zM354 510q12 0 24.5 -10.5t14.5 -21.5q4 -15 -14 -107q-12 -61 -43 -207t-34 -154q-7 -16 -33 -16q-16 0 -33.5 11
t-20.5 25q-1 6 10 56l11 48l-11 15q-18 21 -27 29l-16 16l-70 -94q-54 -73 -66 -86t-25 -13q-19 0 -36 17q-26 25 -14 46q8 15 112 150l33 44l-23 21q-22 22 -22 31q0 10 10 18q13 12 34 12q18 0 34 -10q2 -1 4 -2.5t3.5 -2t3 -1.5t2.5 -2h1q3 0 41 50q68 89 88 110.5
t32 23.5q21 4 30 4zM269 281q9 40 9 41q-1 0 -23 -29l-21 -30l12 -10q11 -11 13 -11q1 0 10 39z" />
    <glyph glyph-name="Acircumflex" unicode="&#xc2;" horiz-adv-x="442" 
d="M440 641q4 -12 1 -42q-4 -33 -6 -38q-6 -20 -21 -20q-25 0 -36 36l-4 12l-26 -15q-8 -5 -24 -14t-20 -12q-28 -18 -37 -18q-3 0 -11 4q-14 7 -20 25t2 28q15 15 82 55t79 40q13 0 25 -12t16 -29zM354 510q12 0 24.5 -10.5t14.5 -21.5q4 -15 -14 -107q-12 -61 -43 -207
t-34 -154q-7 -16 -33 -16q-16 0 -33.5 11t-20.5 25q-1 6 10 56l10 48l-10 15q-18 21 -27 29l-16 16l-70 -94q-54 -73 -66 -86t-25 -13q-19 0 -36 17q-26 25 -14 46q8 15 112 150l33 44l-23 21q-22 22 -22 31q0 10 10 18q13 12 34 12q18 0 34 -10q2 -1 4 -2.5t3.5 -2t3 -1.5
t2.5 -2h1q3 0 41 50q68 89 88 110.5t32 23.5q21 4 30 4zM269 281q9 40 9 41q-1 0 -23 -29l-21 -30l12 -10q11 -11 13 -11q1 0 10 39z" />
    <glyph glyph-name="Atilde" unicode="&#xc3;" horiz-adv-x="451" 
d="M451 618q1 -13 -1 -24q-6 -24 -16 -24q-6 0 -12.5 7t-9.5 17q-2 9 -5 9q-2 0 -50 -24q-41 -22 -56 -22q-24 0 -37 25q-8 18 -8 31q0 18 11 34t23 16l2 -1h2q7 -1 13 -11.5t6 -19.5q0 -5 2 -5q1 0 31 17q46 25 62 25t27 -14q13 -13 16 -36zM354 510q12 0 24.5 -10.5
t14.5 -21.5q4 -15 -14 -107q-12 -61 -43 -207t-34 -154q-7 -16 -33 -16q-16 0 -33.5 11t-20.5 25q-1 6 10 56l11 48l-11 15q-18 21 -27 29l-16 16l-70 -94q-54 -73 -66 -86t-25 -13q-19 0 -36 17q-26 25 -14 46q8 15 112 150l33 44l-23 21q-22 22 -22 31q0 10 10 18
q13 12 34 12q18 0 34 -10q2 -1 4 -2.5t3.5 -2t3 -1.5t2.5 -2h1q3 0 41 50q68 89 88 110.5t32 23.5q21 4 30 4zM269 281q9 40 9 41q-1 0 -23 -29l-21 -30l12 -10q11 -11 13 -11q1 0 10 39z" />
    <glyph glyph-name="Adieresis" unicode="&#xc4;" horiz-adv-x="428" 
d="M427 635q5 -21 -14 -53q-9 -18 -10 -21q-5 -17 -20 -17q-12 0 -20 8q-31 26 -14 71q19 45 26 52q4 2 9 2q8 0 18 -4q20 -12 25 -38zM263 554q-29 16 -29 48q0 18 16 49t30 31q12 0 24 -11t16 -27q8 -22 -12 -53q-10 -15 -14 -25t-8 -12q-5 -3 -11 -3q-7 0 -12 3zM354 510
q12 0 24.5 -10.5t14.5 -21.5q4 -15 -14 -107q-12 -61 -43 -207t-34 -154q-7 -16 -33 -16q-16 0 -33.5 11t-20.5 25q-1 6 10 56l11 48l-11 15q-18 21 -27 29l-16 16l-70 -94q-54 -73 -66 -86t-25 -13q-19 0 -36 17q-26 25 -14 46q8 15 112 150l33 44l-23 21q-22 22 -22 31
q0 10 10 18q13 12 34 12q18 0 34 -10q2 -1 4 -2.5t3.5 -2t3 -1.5t2.5 -2h1q3 0 41 50q68 89 88 110.5t32 23.5q21 4 30 4zM269 281q9 40 9 41q-1 0 -23 -29l-21 -30l12 -10q11 -11 13 -11q1 0 10 39z" />
    <glyph glyph-name="Aring" unicode="&#xc5;" 
d="M443 624q23 -32 20.5 -70t-29.5 -66q-13 -13 -40 -22q0 -21 -15 -95q-12 -61 -43 -207t-34 -154q-7 -16 -33 -16q-16 0 -33.5 11t-20.5 25q-1 6 10 56l11 48l-11 15q-18 21 -27 29l-16 16l-70 -94q-54 -73 -66 -86t-25 -13q-19 0 -36 17q-26 25 -14 46q8 15 112 150
l33 44l-23 21q-22 22 -22 31q0 10 10 18q13 12 34 12q18 0 34 -10q2 -1 4 -2.5t3.5 -2t3 -1.5t2.5 -2h1q3 0 41 50q82 105 99 121q-28 30 -30 68q-1 20 4 34q10 31 36.5 47.5t60.5 16.5q40 0 69 -35zM269 281q9 40 9 41q-1 0 -23 -29l-21 -30l12 -10q11 -11 13 -11
q1 0 10 39zM342 532q9 0 33.5 18.5t24.5 28.5q0 1 -7 1q-19 0 -28 -4q-16 -6 -25.5 -19.5t-1.5 -21.5q3 -3 4 -3z" />
    <glyph glyph-name="AE" unicode="&#xc6;" horiz-adv-x="653" 
d="M701 496q12 -10 14 -29t-7 -32l-5 -7l-59 -2q-52 0 -114 -2h-55l-46 -92l35 1h24q38 0 47 -10q11 -12 13 -29.5t-7 -28.5q-6 -7 -45 -9q-11 -1 -38.5 -2.5t-36.5 -1.5l-37 -1l-20 -42q-33 -70 -38 -106q-5 -33 6 -33q27 0 69 21q35 18 100 65q24 16 28 17q6 2 9 2
q14 0 27.5 -13.5t13.5 -29.5q0 -27 -80 -79q-81 -54 -148 -54q-10 0 -14 1q-29 6 -52.5 25t-29.5 46q-1 -1 0 3q-2 10 -2 16l-5 44l-9 15q-9 16 -22 29l-13 16l-84 -94q-64 -72 -79 -85.5t-28 -13.5q-18 0 -33 17q-23 25 -7 46q8 12 134 150l40 44l-19 21q-20 22 -19 31
q2 10 14 18q15 12 35 12q19 0 32 -10q2 -1 4 -2.5t3.5 -2t3 -1.5t2.5 -2h1q3 0 48 50q82 88 105 110t35 24q14 3 38 3q13 1 54 1h95h34q73 0 88 -14zM286 293l-22 -30l12 -10q11 -11 13 -11q1 0 10 39q9 40 9 41q-2 0 -22 -29z" />
    <glyph glyph-name="Ccedilla" unicode="&#xc7;" horiz-adv-x="361" 
d="M421 415q3 -35 -17 -76q-24 -49 -47 -49q-1 0 -2 0.5t-2 0.5q-13 2 -24.5 18.5t-8.5 27.5q2 6 11 22q15 29 21 55l2 8l-10 -2q-50 -9 -111 -85t-92 -167q-30 -90 -9 -105q8 -4 13 -4q32 0 69.5 49.5t49.5 86.5q6 17 11 21.5t17 4.5q23 0 38 -20q7 -9 7 -30t-11 -42
q-28 -56 -60 -88q-43 -46 -108 -46h-10q-2 -4 -6 -8l-9 -14l5 -3q31 -20 35 -57q4 -22 -7.5 -43t-34.5 -33q-25 -15 -61 -15q-13 0 -17 2q-32 12 -45 34q-13 20 -3 33q3 5 8 5q6 0 22 -8q16 -9 21 -9q10 0 27.5 6.5t25.5 13.5q6 6 10.5 14.5t2.5 9.5q-1 1 -7 1t-18 -2
q-3 -1 -9 -1q-18 0 -29.5 17t-2.5 33q10 19 32 45q-22 14 -35 33q-29 42 -16 112q11 60 48.5 135t97.5 138.5t119 72.5q5 1 16 1q41 0 71.5 -27t31.5 -66z" />
    <glyph glyph-name="Egrave" unicode="&#xc8;" horiz-adv-x="434" 
d="M325 557q-10 5 -17 16.5t-25 50.5q-24 51 -26.5 64.5t10.5 22.5q11 8 25 8q16 0 29 -11q9 -8 37.5 -63.5t29.5 -64.5q0 -12 -13 -19.5t-29 -7.5q-13 0 -21 4zM482 496q12 -11 14.5 -29.5t-7.5 -31.5l-5 -7l-59 -2q-52 0 -114 -2h-55l-45 -92l34 1q6 0 15 0.5t13 0.5
q33 0 44 -11q11 -12 12.5 -29.5t-7.5 -28.5q-4 -5 -10 -6t-35 -3q-11 -1 -38.5 -2.5t-36.5 -1.5l-37 -1l-20 -42q-32 -66 -38 -106q-5 -33 6 -33q28 0 70 21q28 15 100 65q20 15 27 17q6 2 9 2q14 0 27.5 -13.5t13.5 -29.5q0 -27 -80 -79q-83 -54 -148 -54q-34 0 -67 26
q-81 65 -12 209q7 14 7.5 16.5t-3.5 6.5q-9 10 -11.5 24.5t2.5 24.5q4 8 17 11q9 4 18 4q10 0 16.5 7t27.5 43l28 46l-9 9q-16 16 -16.5 38t14.5 29q34 17 216 17h34q73 0 88 -14z" />
    <glyph glyph-name="Eacute" unicode="&#xc9;" horiz-adv-x="434" 
d="M319 534q-24 15 -24 41q0 17 23 35q64 52 105 78q11 7 18 7q5 0 12 -4q12 -7 18.5 -22.5t1.5 -26.5q-6 -16 -108 -95q-22 -17 -31 -17q-7 0 -15 4zM482 496q12 -11 14.5 -29.5t-7.5 -31.5l-5 -7l-59 -2q-52 0 -114 -2h-55l-45 -92l34 1q6 0 15 0.5t13 0.5q33 0 44 -11
q11 -12 12.5 -29.5t-7.5 -28.5q-4 -5 -10 -6t-35 -3q-11 -1 -38.5 -2.5t-36.5 -1.5l-37 -1l-20 -42q-32 -66 -38 -106q-5 -33 6 -33q28 0 70 21q28 15 100 65q20 15 27 17q6 2 9 2q14 0 27.5 -13.5t13.5 -29.5q0 -27 -80 -79q-83 -54 -148 -54q-34 0 -67 26q-81 65 -12 209
q7 14 7.5 16.5t-3.5 6.5q-9 10 -11.5 24.5t2.5 24.5q4 8 17 11q9 4 18 4q10 0 16.5 7t27.5 43l28 46l-9 9q-16 16 -16.5 38t14.5 29q34 17 216 17h34q73 0 88 -14z" />
    <glyph glyph-name="Ecircumflex" unicode="&#xca;" horiz-adv-x="434" 
d="M281 534q-14 8 -19.5 25.5t2.5 27.5q5 10 77.5 52.5t82.5 42.5q14 0 26 -12t16 -29q3 -13 0 -42q-1 -19 -5 -38q-6 -20 -22 -20q-10 0 -20 9.5t-15 26.5l-4 12l-26 -15q-5 -3 -22 -13t-22 -13q-29 -18 -38 -18q-1 0 -11 4zM482 496q12 -11 14.5 -29.5t-7.5 -31.5l-5 -7
l-59 -2q-52 0 -114 -2h-55l-45 -92l34 1q6 0 15 0.5t13 0.5q33 0 44 -11q11 -12 12.5 -29.5t-7.5 -28.5q-4 -5 -10 -6t-35 -3q-11 -1 -38.5 -2.5t-36.5 -1.5l-37 -1l-20 -42q-32 -66 -38 -106q-5 -33 6 -33q28 0 70 21q28 15 100 65q20 15 27 17q6 2 9 2q14 0 27.5 -13.5
t13.5 -29.5q0 -27 -80 -79q-83 -54 -148 -54q-34 0 -67 26q-81 65 -12 209q7 14 7.5 16.5t-3.5 6.5q-9 10 -11.5 24.5t2.5 24.5q4 8 17 11q9 4 18 4q10 0 16.5 7t27.5 43l28 46l-9 9q-16 16 -16.5 38t14.5 29q34 17 216 17h34q73 0 88 -14z" />
    <glyph glyph-name="Edieresis" unicode="&#xcb;" horiz-adv-x="434" 
d="M388 552q-31 27 -13 71q17 46 26 52q4 2 9 2q32 0 43 -42q4 -23 -14 -53q-6 -10 -10 -21q-5 -17 -21 -17q-12 0 -20 8zM288 554q-29 16 -29 48q0 12 14 41q12 25 18 32t14 7q13 0 24.5 -10.5t16.5 -27.5q7 -22 -12 -53q-13 -19 -14 -25q-4 -10 -8 -12q-4 -3 -11 -3
q-9 0 -13 3zM482 496q12 -11 14.5 -29.5t-7.5 -31.5l-5 -7l-59 -2q-52 0 -114 -2h-55l-45 -92l34 1q6 0 15 0.5t13 0.5q33 0 44 -11q11 -12 12.5 -29.5t-7.5 -28.5q-4 -5 -10 -6t-35 -3q-11 -1 -38.5 -2.5t-36.5 -1.5l-37 -1l-20 -42q-32 -66 -38 -106q-5 -33 6 -33
q28 0 70 21q28 15 100 65q20 15 27 17q6 2 9 2q14 0 27.5 -13.5t13.5 -29.5q0 -27 -80 -79q-83 -54 -148 -54q-34 0 -67 26q-81 65 -12 209q7 14 7.5 16.5t-3.5 6.5q-9 10 -11.5 24.5t2.5 24.5q4 8 17 11q9 4 18 4q10 0 16.5 7t27.5 43l28 46l-9 9q-16 16 -16.5 38t14.5 29
q34 17 216 17h34q73 0 88 -14z" />
    <glyph glyph-name="Igrave" unicode="&#xcc;" horiz-adv-x="349" 
d="M318 708q9 -8 37.5 -63.5t29.5 -64.5q0 -12 -13 -19.5t-29 -7.5q-13 0 -21 4q-10 5 -17 16.5t-25 50.5q-24 51 -26.5 64.5t9.5 22.5q13 8 26 8q16 0 29 -11zM285 498q34 -28 15 -74q-39 -95 -170 -360q-29 -60 -37 -64q-12 -4 -19 -4q-8 0 -16 3q-21 5 -39 27
q-7 12 -8 24q-1 10 3.5 21t26.5 56q38 80 110 218t82 152q9 12 25 12q14 0 27 -11z" />
    <glyph glyph-name="Iacute" unicode="&#xcd;" horiz-adv-x="361" 
d="M375 691q12 -7 18.5 -22.5t1.5 -26.5q-5 -12 -65.5 -62t-73.5 -50q-7 0 -15 4q-24 15 -24 41q0 17 23 35q64 52 105 78q11 7 18 7q5 0 12 -4zM285 498q34 -28 15 -74q-39 -95 -170 -360q-29 -60 -37 -64q-12 -4 -19 -4q-8 0 -16 3q-21 5 -39 27q-7 12 -8 24q-1 10 3.5 21
t26.5 56q38 80 110 218t82 152q9 12 25 12q14 0 27 -11z" />
    <glyph glyph-name="Icircumflex" unicode="&#xce;" horiz-adv-x="368" 
d="M403 641q3 -13 0 -42q-1 -19 -5 -38q-6 -20 -21 -20q-25 0 -36 36l-4 12l-26 -15q-5 -3 -22 -13t-22 -13q-29 -18 -38 -18q-1 0 -11 4q-14 8 -19.5 25.5t2.5 27.5q5 10 77.5 52.5t82.5 42.5q14 0 26 -12t16 -29zM285 498q34 -28 15 -74q-39 -95 -170 -360
q-29 -60 -37 -64q-12 -4 -19 -4q-8 0 -16 3q-21 5 -39 27q-7 12 -8 24q-1 10 3.5 21t26.5 56q38 80 110 218t82 152q9 12 25 12q14 0 27 -11z" />
    <glyph glyph-name="Idieresis" unicode="&#xcf;" horiz-adv-x="378" 
d="M413 635q5 -21 -14 -53q-9 -18 -10 -21q-5 -17 -20 -17q-12 0 -20 8q-31 26 -14 71q19 45 26 52q4 2 9 2q8 0 18 -4q20 -12 25 -38zM266 682q12 0 24 -11t16 -27q8 -22 -12 -53q-10 -15 -14 -25q-3 -10 -8 -12q-4 -3 -11 -3t-12 3q-29 16 -29 48q0 18 16 49t30 31z
M285 498q34 -28 15 -74q-39 -95 -170 -360q-29 -60 -37 -64q-12 -4 -19 -4q-8 0 -16 3q-21 5 -39 27q-7 12 -8 24q-1 10 3.5 21t26.5 56q38 80 110 218t82 152q9 12 25 12q14 0 27 -11z" />
    <glyph glyph-name="Eth" unicode="&#xd0;" horiz-adv-x="462" 
d="M460 439q16 -32 15 -74q0 -73 -48 -139q-51 -66 -167.5 -145.5t-187.5 -79.5q-14 0 -21 3q-21 11 -26 37q-2 16 -5 24l-3 10l30 61q4 8 23.5 47.5t30.5 63.5h-11q-9 0 -15 3q-22 16 -15 38q5 12 22 15q9 1 50 5l37 73l-5 11q-6 10 -6 26q0 15 7 24t27 22q27 18 34 23
q11 9 24 10q16 2 35 7q24 6 48 6q44 0 77.5 -18.5t49.5 -52.5zM381 313q15 22 22 45t1 33q-5 11 -35 18q-14 2 -26 2q-35 0 -51 -6l-14 -5l-21 -46q-8 -18 -18 -38q4 0 11 0.5t10 0.5q24 0 32 -12q11 -15 9.5 -31.5t-13.5 -18.5q-3 0 -47 -2q-5 0 -16 -0.5t-17 -0.5
q-8 -18 -12 -26q-10 -19 -21 -42t-17.5 -36.5t-8.5 -16.5l-6 -13l8 4q1 0 37 23q62 40 117 88t76 80z" />
    <glyph glyph-name="Ntilde" unicode="&#xd1;" horiz-adv-x="510" 
d="M378 557q-24 0 -37 25q-8 18 -8 31q0 18 11 34t23 16q1 0 2 -0.5t2 -0.5q7 -1 13 -11.5t6 -19.5q0 -5 2 -5q1 0 31 17q46 25 63 25t28 -15.5t14 -34.5q2 -10 -1 -24q-6 -24 -16 -24q-6 0 -12.5 7t-9.5 17q-2 9 -4 9q-3 0 -51 -24q-41 -22 -56 -22zM521 512q19 0 35 -15.5
t16 -32.5q0 -34 -160 -382q-25 -54 -32.5 -64.5t-23.5 -10.5q-20 0 -39 14.5t-25 34.5q-4 13 -12 23t-12 19q-1 6 -5 101q-1 70 -4 140l-2 48l-26 -61q-7 -16 -35.5 -81t-42.5 -98q-53 -119 -53 -121l-10 -14q-11 -11 -25 -11q-12 0 -24 4q-21 10 -33 31q-6 13 -4.5 26
t13.5 38q42 89 91 198q92 203 111 223q9 9 20 9q10 0 22 -4q6 -3 10 -3q1 0 3 1q7 5 16 5q22 0 38.5 -15t20.5 -37q7 -43 12 -169q4 -65 4 -66q0 -4 24 46q62 133 97 195q17 29 35 29z" />
    <glyph glyph-name="Ograve" unicode="&#xd2;" 
d="M267 557q-10 5 -17.5 17t-25.5 50q-23 51 -25.5 64.5t9.5 22.5q11 8 26 8q16 0 29 -11q9 -8 37.5 -63.5t28.5 -64.5q1 -12 -11.5 -19.5t-29.5 -7.5q-13 0 -21 4zM416 475q59 -59 52 -146q-6 -63 -42 -141.5t-96 -139.5t-120 -61q-62 0 -115 51q-28 26 -38.5 52t-10.5 66
q0 43 18 87q8 23 6 32q-6 19 5 67q10 43 27.5 71t50.5 54q70 57 146 57q68 0 117 -49zM301 170q35 52 58.5 113t23.5 99q0 42 -40 48q-48 0 -77 -14l-16 -8l7 -14q10 -18 7 -27t-25 -32q-26 -27 -54 -73.5t-41 -84.5q-14 -43 -7 -73q4 -19 16 -25t33 -6q17 2 30 9
q16 8 42 34.5t43 53.5z" />
    <glyph glyph-name="Oacute" unicode="&#xd3;" horiz-adv-x="475" 
d="M459 691q11 -7 17.5 -22.5t2.5 -26.5q-5 -12 -65.5 -62t-73.5 -50q-16 0 -28 14.5t-12 30.5q0 17 23 35q64 52 105 78q13 7 18 7q6 0 13 -4zM153 467q70 57 146 57q68 0 117 -49q59 -59 52 -146q-6 -63 -42 -141.5t-96 -139.5t-120 -61q-62 0 -115 51q-28 26 -38.5 52
t-10.5 66q0 43 18 87q8 23 6 32q-6 19 5 67q10 43 27.5 71t50.5 54zM301 170q35 52 58.5 113t23.5 99q0 42 -40 48q-48 0 -77 -14l-16 -8l7 -14q10 -18 7 -27t-25 -32q-26 -27 -54 -73.5t-41 -84.5q-14 -43 -7 -73q4 -19 16 -25t33 -6q17 2 30 9q16 8 42 34.5t43 53.5z" />
    <glyph glyph-name="Ocircumflex" unicode="&#xd4;" 
d="M280 534q-14 7 -20 25t2 28q5 10 77.5 52.5t82.5 42.5q14 0 26 -12t16 -29q3 -13 0 -42q-1 -19 -5 -38q-6 -20 -21 -20q-25 0 -36 36l-4 12l-26 -15q-5 -3 -22 -13t-22 -13q-29 -18 -37 -18q-3 0 -11 4zM416 475q59 -59 52 -146q-6 -63 -42 -141.5t-96 -139.5t-120 -61
q-62 0 -115 51q-28 26 -38.5 52t-10.5 66q0 43 18 87q8 23 6 32q-6 19 5 67q10 43 27.5 71t50.5 54q70 57 146 57q68 0 117 -49zM301 170q35 52 58.5 113t23.5 99q0 42 -40 48q-48 0 -77 -14l-16 -8l7 -14q10 -18 7 -27t-25 -32q-26 -27 -54 -73.5t-41 -84.5q-14 -43 -7 -73
q4 -19 16 -25t33 -6q17 2 30 9q16 8 42 34.5t43 53.5z" />
    <glyph glyph-name="Otilde" unicode="&#xd5;" 
d="M295 557q-24 0 -37 25q-8 18 -8 31q0 18 11 34t23 16l2 -1h2q7 -1 13 -11.5t6 -19.5q0 -5 2 -5q1 0 31 17q46 25 62 25t27 -14q13 -13 16 -36q1 -13 -1 -24q-6 -24 -16 -24q-6 0 -12.5 7t-9.5 17q-2 9 -5 9q-2 0 -50 -24q-41 -22 -56 -22zM416 475q59 -59 52 -146
q-6 -63 -42 -141.5t-96 -139.5t-120 -61q-62 0 -115 51q-28 26 -38.5 52t-10.5 66q0 43 18 87q8 23 6 32q-6 19 5 67q10 43 27.5 71t50.5 54q70 57 146 57q68 0 117 -49zM301 170q35 52 58.5 113t23.5 99q0 42 -40 48q-48 0 -77 -14l-16 -8l7 -14q10 -18 7 -27t-25 -32
q-26 -27 -54 -73.5t-41 -84.5q-14 -43 -7 -73q4 -19 16 -25t33 -6q17 2 30 9q16 8 42 34.5t43 53.5z" />
    <glyph glyph-name="Odieresis" unicode="&#xd6;" 
d="M378 552q-32 26 -14 71q16 42 26 52q4 2 9 2q16 0 27.5 -12.5t15.5 -29.5q4 -23 -14 -53q-6 -10 -10 -21q-5 -17 -21 -17q-11 0 -19 8zM277 554q-29 17 -29 48q0 12 14 41q12 25 18 32t14 7q13 0 24.5 -10.5t16.5 -27.5q7 -21 -12 -53q-10 -15 -14 -25q-3 -10 -8 -12
q-5 -3 -11 -3q-7 0 -13 3zM416 475q59 -59 52 -146q-6 -63 -42 -141.5t-96 -139.5t-120 -61q-62 0 -115 51q-28 26 -38.5 52t-10.5 66q0 43 18 87q8 23 6 32q-6 19 5 67q10 43 27.5 71t50.5 54q70 57 146 57q68 0 117 -49zM301 170q35 52 58.5 113t23.5 99q0 42 -40 48
q-48 0 -77 -14l-16 -8l7 -14q10 -18 7 -27t-25 -32q-26 -27 -54 -73.5t-41 -84.5q-14 -43 -7 -73q4 -19 16 -25t33 -6q17 2 30 9q16 8 42 34.5t43 53.5z" />
    <glyph glyph-name="multiply" unicode="&#xd7;" horiz-adv-x="406" 
d="M388 320q-15 -15 -118 -78l-24 -14l11 -25q25 -54 27.5 -73t-15.5 -26q-10 -4 -23 -4q-24 0 -36 12t-26 41q-10 25 -13 27q-1 1 -27 -16t-49 -34q-30 -22 -37 -22q-4 0 -16 4q-35 20 -32 58q1 11 12 21q38 31 100 67l15 10l-10 26q-27 69 -27 105q0 13 2 17q8 13 33 13
q13 0 21 -4q18 -8 30 -47q22 -63 23 -64t32 16q103 58 121 58h4q13 -4 21.5 -17t8.5 -30q0 -13 -8 -21z" />
    <glyph glyph-name="Oslash" unicode="&#xd8;" 
d="M416 475q59 -59 52 -146q-6 -62 -41 -139.5t-93.5 -138.5t-117.5 -64q-32 -71 -43 -89q-12 -18 -23 -18q-14 0 -29 13.5t-16 27.5q-3 16 26 90q-85 46 -85 145q0 43 18 87q8 23 6 32q-6 19 5 67q10 43 27.5 71t50.5 54q70 56 146 56q21 0 31 -2q44 98 50 107q12 18 24 18
q8 0 18 -6q24 -12 26 -35q3 -17 -39 -123q1 -1 2 -2.5t2.5 -2.5t2.5 -2zM301 170q35 52 58.5 113t23.5 99q0 42 -40 48q-48 0 -77 -14l-16 -8l7 -14q10 -18 7 -27t-25 -32q-26 -27 -54 -73.5t-41 -84.5q-14 -43 -7 -73q4 -19 16 -25t33 -6q17 2 30 9q16 8 42 34.5t43 53.5z
" />
    <glyph glyph-name="Ugrave" unicode="&#xd9;" horiz-adv-x="423" 
d="M369 557q-16 8 -42 67q-24 51 -26.5 64.5t9.5 22.5q11 8 26 8q16 0 29 -11q9 -8 37.5 -63.5t28.5 -64.5q1 -12 -11.5 -19.5t-29.5 -7.5q-13 0 -21 4zM485 460q2 -11 -29 -84q-49 -120 -102 -217q-53 -99 -89 -137.5t-80 -45.5q-10 -2 -17 -2t-15 2q-40 7 -68 30
q-65 52 -29 207q22 93 74 185q62 111 80 117q3 1 9 1q18 0 35 -15t16 -31q-1 -12 -46 -95q-57 -106 -75 -180q-25 -100 -10 -138q3 -9 8 -9q24 0 61 47.5t74 120t60 122.5t40 90q24 58 30 66q6 6 20 6q17 0 33 -12t20 -28z" />
    <glyph glyph-name="Uacute" unicode="&#xda;" horiz-adv-x="445" 
d="M486 691q11 -7 17.5 -22.5t2.5 -26.5q-5 -12 -65.5 -62t-73.5 -50q-16 0 -28 14.5t-12 30.5q0 17 23 35q64 52 105 78q13 7 18 7q6 0 13 -4zM432 500q17 0 33 -12t20 -28q2 -11 -29 -84q-49 -120 -102 -217q-53 -99 -89 -137.5t-80 -45.5q-10 -2 -17 -2t-15 2
q-40 7 -68 30q-65 52 -29 207q22 93 74 185q62 111 80 117q3 1 9 1q18 0 35 -15t16 -31q-1 -12 -46 -95q-57 -106 -75 -180q-25 -100 -10 -138q3 -9 8 -9q24 0 61 47.5t74 120t60 122.5t40 90q24 58 30 66q6 6 20 6z" />
    <glyph glyph-name="Ucircumflex" unicode="&#xdb;" horiz-adv-x="423" 
d="M485 460q2 -11 -29 -84q-49 -120 -102 -217q-53 -99 -89 -137.5t-80 -45.5q-10 -2 -17 -2t-15 2q-40 7 -68 30q-65 52 -29 207q22 93 74 185q62 111 80 117q3 1 9 1q18 0 35 -15t16 -31q-1 -12 -46 -95q-57 -106 -75 -180q-25 -100 -10 -138q3 -9 8 -9q24 0 61 47.5
t74 120t60 122.5t40 90q24 58 30 66q6 6 20 6q17 0 33 -12t20 -28zM285 537q-14 7 -19.5 24.5t2.5 28.5q4 9 76.5 51.5t83.5 42.5q14 0 26 -12t16 -29q3 -13 0 -41q-4 -35 -5 -38q-6 -20 -22 -20q-11 0 -21 9.5t-14 25.5l-4 13l-27 -16q-28 -16 -43 -26q-29 -18 -38 -18
q-3 0 -11 5z" />
    <glyph glyph-name="Udieresis" unicode="&#xdc;" horiz-adv-x="423" 
d="M392 552q-31 27 -13 71q17 46 26 52q4 2 9 2q32 0 43 -42q4 -23 -14 -53q-6 -10 -10 -21q-5 -17 -21 -17q-12 0 -20 8zM292 554q-29 16 -29 48q0 12 14 41q12 25 18 32t14 7q13 0 24.5 -10.5t16.5 -27.5q7 -22 -12 -53q-13 -19 -14 -25q-4 -10 -8 -12q-5 -3 -11 -3
q-9 0 -13 3zM485 460q2 -11 -29 -84q-49 -120 -102 -217q-53 -99 -89 -137.5t-80 -45.5q-10 -2 -17 -2t-15 2q-40 7 -68 30q-65 52 -29 207q22 93 74 185q62 111 80 117q3 1 9 1q18 0 35 -15t16 -31q-1 -12 -46 -95q-57 -106 -75 -180q-25 -100 -10 -138q3 -9 8 -9
q24 0 61 47.5t74 120t60 122.5t40 90q24 58 30 66q6 6 20 6q17 0 33 -12t20 -28z" />
    <glyph glyph-name="Yacute" unicode="&#xdd;" horiz-adv-x="380" 
d="M279 534q-24 15 -24 41q0 17 23 35q64 52 105 78q11 7 18 7q5 0 12 -4q12 -7 18.5 -22.5t1.5 -26.5q-6 -16 -108 -95q-22 -17 -31 -17q-7 0 -15 4zM400 498q16 -2 29 -17.5t13 -31.5q0 -20 -49 -116q-97 -190 -136 -284q-18 -45 -22 -51q-8 -11 -26 -11q-10 0 -23 5
q-14 8 -26 24t-12 29q0 4 19 49t30 66q4 8 6.5 13.5t1.5 5.5q0 1 -2 0.5t-5 -1.5q-13 -5 -27 -5q-43 0 -75 34q-40 40 -23 104q11 43 53 124t71 81q16 0 29.5 -15t13.5 -31q0 -12 -14 -34q-23 -34 -47 -90t-29 -85l-2 -10l7 2q32 9 87 65t92 119q36 61 66 61z" />
    <glyph glyph-name="germandbls" unicode="&#xdf;" horiz-adv-x="453" 
d="M365 295q-37 -36 -41 -41q-3 -4 17 -20q21 -17 34 -40l13 -23l2 -30q2 -29 -6 -48q-21 -50 -72.5 -80.5t-107.5 -30.5q-24 2 -41.5 17.5t-18.5 37.5q-2 16 5.5 22t31.5 8q39 3 73 28q23 16 40 36.5t16 33.5q-1 5 -4 7.5t-17 8.5q-57 23 -60 72q-2 21 15.5 46t70.5 80
q33 35 35 38l5 7l-10 -3q-60 -15 -117 -101q-91 -142 -140 -273q-20 -53 -23 -56t-11 -3q-16 0 -27 11q-20 19 -16 48q2 27 33 110q18 47 60 123q63 115 110.5 165t105.5 62q16 2 23 2q41 0 69.5 -24.5t30.5 -63.5q1 -23 -6 -38q-11 -29 -72 -88z" />
    <glyph glyph-name="agrave" unicode="&#xe0;" horiz-adv-x="391" 
d="M265 357q-10 5 -17.5 16.5t-25.5 50.5q-23 51 -25.5 64t9.5 22q11 8 25 8q17 0 30 -11q9 -8 37.5 -63t28.5 -64q1 -12 -11.5 -20t-28.5 -8q-10 0 -22 5zM368 315q14 -15 12 -35q-3 -20 -61.5 -149.5t-66.5 -136.5q-7 -5 -19 -5q-4 0 -12 2q-35 12 -38 40q-2 8 14 42
l15 33l-17 -18q-71 -70 -105 -82q-9 -4 -22 -4q-41 0 -62 38q-8 14 -9 46q-1 33 4 51q19 74 79 136.5t131 62.5q48 0 79 -31l14 -12q13 36 35 36q15 0 29 -14zM257 257q13 4 -5 9q-3 1 -7 2t-12 1q-39 0 -83.5 -36t-67.5 -88q-18 -38 -18 -63q1 -7 2 -7t3 2q2 1 22 17
q36 33 92 92q55 62 74 71z" />
    <glyph glyph-name="aacute" unicode="&#xe1;" horiz-adv-x="391" 
d="M224 352q-24 15 -24 42q0 17 23 35q108 85 123 85q4 0 12 -5q12 -7 18.5 -22t1.5 -26q-5 -12 -65.5 -62.5t-73.5 -50.5q-7 0 -15 4zM368 315q14 -15 12 -35q-3 -20 -61.5 -149.5t-66.5 -136.5q-7 -5 -19 -5q-4 0 -12 2q-35 12 -38 40q-2 8 14 42l15 33l-17 -18
q-71 -70 -105 -82q-9 -4 -22 -4q-41 0 -62 38q-8 14 -9 46q-1 33 4 51q19 74 79 136.5t131 62.5q48 0 79 -31l14 -12q13 36 35 36q15 0 29 -14zM257 257q13 4 -5 9q-3 1 -7 2t-12 1q-39 0 -83.5 -36t-67.5 -88q-18 -38 -18 -63q1 -7 2 -7t3 2q2 1 22 17q36 33 92 92
q55 62 74 71z" />
    <glyph glyph-name="acircumflex" unicode="&#xe2;" horiz-adv-x="401" 
d="M389 470q3 -13 0 -42q-1 -19 -5 -38q-6 -20 -21 -20q-25 0 -36 36l-4 13l-26 -16q-6 -3 -44 -26q-29 -18 -37 -18q-3 0 -11 4q-14 7 -20 25.5t2 28.5q4 9 77 51.5t84 42.5q14 0 25.5 -12t15.5 -29zM304 293q13 36 35 36q15 0 29 -14q14 -15 12 -35q-3 -20 -61.5 -149.5
t-66.5 -136.5q-7 -5 -19 -5q-4 0 -12 2q-35 12 -38 40q-2 8 14 42l15 33l-17 -18q-71 -70 -105 -82q-9 -4 -22 -4q-41 0 -62 38q-8 14 -9 46q-1 33 4 51q19 74 79 136.5t131 62.5q48 0 79 -31zM257 257q13 4 -5 9q-3 1 -7 2t-12 1q-39 0 -83.5 -36t-67.5 -88
q-18 -38 -18 -63q1 -7 2 -7t3 2q2 1 22 17q36 33 92 92q55 62 74 71z" />
    <glyph glyph-name="atilde" unicode="&#xe3;" horiz-adv-x="396" 
d="M384 437q1 -13 -1 -24q-6 -25 -16 -25q-6 0 -12.5 7.5t-9.5 17.5q-3 8 -5 8q-8 0 -50 -24q-41 -22 -57 -22q-18 0 -31.5 18.5t-13.5 37.5q0 18 11 34.5t23 16.5h2q1 -1 2 -1q7 -2 13.5 -12.5t6.5 -19.5q0 -4 2 -4q15 7 31 16q46 26 62 26q33 -3 43 -50zM304 293
q13 36 35 36q15 0 29 -14q14 -15 12 -35q-3 -20 -61.5 -149.5t-66.5 -136.5q-7 -5 -19 -5q-4 0 -12 2q-35 12 -38 40q-2 8 14 42l15 33l-17 -18q-71 -70 -105 -82q-9 -4 -22 -4q-41 0 -62 38q-8 14 -9 46q-1 33 4 51q19 74 79 136.5t131 62.5q48 0 79 -31zM257 257
q13 4 -5 9q-3 1 -7 2t-12 1q-39 0 -83.5 -36t-67.5 -88q-18 -38 -18 -63q1 -7 2 -7t3 2q2 1 22 17q36 33 92 92q55 62 74 71z" />
    <glyph glyph-name="adieresis" unicode="&#xe4;" horiz-adv-x="409" 
d="M398 454q4 -21 -14 -54q-10 -15 -11 -21q-3 -17 -21 -17q-9 0 -19 8q-31 28 -14 71q21 49 27 52q4 2 8 2q8 0 18 -4q19 -9 26 -37zM233 373q-29 15 -29 48q0 16 16.5 47.5t29.5 31.5t24.5 -10.5t16.5 -26.5q7 -24 -13 -53q-9 -14 -14 -26q-2 -9 -7 -12q-6 -2 -11 -2
q-9 0 -13 3zM305 293q13 36 35 36q15 0 29 -14q14 -15 12 -35q-3 -20 -61.5 -149.5t-66.5 -136.5q-7 -5 -19 -5q-4 0 -12 2q-35 12 -38 40q-2 8 14 42l15 33l-17 -18q-70 -70 -105 -82q-9 -4 -22 -4q-41 0 -62 38q-8 14 -9 46q-1 33 4 51q19 74 79 136.5t131 62.5
q48 0 79 -31zM258 257q13 4 -5 9q-3 1 -7 2t-12 1q-39 0 -83.5 -36t-67.5 -88q-18 -38 -18 -63q1 -7 2 -7t3 2q2 1 22 17q36 33 92 92q55 62 74 71z" />
    <glyph glyph-name="aring" unicode="&#xe5;" horiz-adv-x="391" 
d="M357 324q8 -6 11 -9q14 -15 12 -35q-3 -20 -61.5 -149.5t-66.5 -136.5q-7 -5 -19 -5q-4 0 -12 2q-35 12 -38 40q-2 8 14 42l15 33l-17 -18q-71 -70 -105 -82q-9 -4 -22 -4q-41 0 -62 38q-8 14 -9 46q-1 33 4 51q19 71 78 135t127 64q-16 25 -17 52q-1 20 4 35
q22 63 97 63q42 0 69 -35q22 -29 21.5 -64.5t-23.5 -62.5zM281 403q-16 -5 -25.5 -19t-1.5 -21q3 -3 4 -3q11 0 30.5 14t24.5 24q3 4 3 8q0 1 -7 1q-19 0 -28 -4zM257 257q13 4 -5 9q-3 1 -7 2t-12 1q-39 0 -83.5 -36t-67.5 -88q-18 -38 -18 -63q1 -7 2 -7t3 2q2 1 22 17
q36 33 92 92q55 62 74 71z" />
    <glyph glyph-name="ae" unicode="&#xe6;" horiz-adv-x="577" 
d="M445 346q44 0 77 -30.5t33 -74.5q0 -42 -36 -72.5t-79 -31.5q-25 0 -52.5 11.5t-37.5 25.5l-4 7l-8 -13q-21 -35 -21 -63q0 -15 8 -23q18 -19 46 -19q27 0 54 23q25 20 37 20t25 -11.5t16 -24.5t-1 -22t-20 -25q-39 -39 -87 -39q-16 0 -25 2q-45 6 -93 54
q-19 -40 -25 -46q-7 -5 -19 -5q-4 0 -12 2q-35 12 -38 40q-2 8 14 42l15 33l-17 -18q-71 -70 -105 -82q-9 -4 -22 -4q-41 0 -62 38q-8 14 -9 46q-1 33 4 51q19 74 79 136.5t131 62.5q48 0 79 -31q14 -11 14 -12q2 -2 8 -11q64 64 133 64zM183 186q55 62 74 71q13 4 -5 9
q-3 1 -7 2t-12 1q-39 0 -83.5 -36t-67.5 -88q-18 -38 -18 -63q1 -7 2 -7t3 2q2 1 22 17q36 33 92 92zM500 249q3 5 4.5 8t1.5 5t-1.5 3t-5.5 1q-1 0 -5 -0.5t-7 -0.5q-19 -1 -41 -12q-42 -21 -42 -31q0 -5 10 -9.5t21 -4.5q35 0 65 41z" />
    <glyph glyph-name="ccedilla" unicode="&#xe7;" horiz-adv-x="338" 
d="M233 345q47 -7 74 -40.5t19 -76.5q-6 -42 -30 -42q-14 0 -30 18t-8 39q4 12 4 17q0 6 -9 6q-58 0 -101 -46q-36 -37 -52 -84.5t1 -64.5q5 -5 17 -5q43 0 85 61q13 19 20 24.5t17 5.5q20 0 37.5 -20t11.5 -36q-8 -22 -46 -66q-43 -44 -103 -44q0 -1 -1 -2l-8 -12l4 -2
q26 -17 31 -49q5 -43 -37 -66q-24 -12 -52 -12q-11 0 -15 2q-10 3 -21.5 11.5t-16.5 16.5q-11 18 -3 29q3 4 8 4t18 -7q12 -7 18 -7q26 0 45 17q3 2 6 7t5 9t1 4q-1 1 -7 1q-11 0 -15 -2q-2 -1 -7 -1q-15 0 -25 14.5t-3 28.5q7 12 20 30q-20 11 -32 23q-65 57 -33 150
q24 71 80.5 119.5t114.5 48.5q12 0 18 -1z" />
    <glyph glyph-name="egrave" unicode="&#xe8;" horiz-adv-x="354" 
d="M264 353q-9 5 -16.5 16.5t-25.5 50.5q-23 51 -25.5 64t9.5 22q11 8 25 8q17 0 30 -11q9 -9 37.5 -63.5t28.5 -63.5q1 -12 -12 -20t-29 -8q-10 0 -22 5zM222 346q44 0 77 -30.5t33 -74.5q0 -42 -36 -72.5t-79 -31.5q-25 0 -52.5 11.5t-37.5 25.5l-4 7l-8 -13
q-21 -35 -21 -63q0 -15 8 -23q18 -19 46 -19q27 0 54 23q25 20 37 20t25 -11.5t16 -24.5t-1 -22t-20 -25q-39 -39 -87 -39q-16 0 -25 2q-45 6 -93 54q-51 56 -31 131q6 26 27 60.5t45 57.5q60 57 127 57zM255 249q3 5 4.5 8t1.5 5t-1.5 3t-5.5 1q-1 0 -5 -0.5t-7 -0.5
q-19 -1 -41 -12q-42 -21 -42 -31q0 -5 10 -9.5t21 -4.5q35 0 65 41z" />
    <glyph glyph-name="eacute" unicode="&#xe9;" horiz-adv-x="413" 
d="M368 513q12 -7 18.5 -22.5t2.5 -25.5q-5 -11 -66.5 -62t-72.5 -51q-16 0 -28 15t-12 31q0 10 4 16t19 19q108 85 123 85q4 0 12 -5zM222 346q44 0 77 -31t33 -74q0 -42 -36 -72.5t-79 -31.5q-25 0 -52.5 11.5t-37.5 25.5l-4 7l-8 -13q-21 -35 -21 -63q0 -15 8 -23
q18 -19 46 -19q27 0 54 23q25 20 37 20t25 -11.5t16 -24.5t-1 -22t-20 -25q-39 -39 -87 -39q-16 0 -25 2q-45 6 -93 54q-51 56 -31 131q6 26 27 60.5t45 57.5q60 57 127 57zM255 249q3 5 4.5 8t1.5 5t-1.5 3t-5.5 1q-1 0 -5 -0.5t-7 -0.5q-19 -1 -41 -12q-42 -21 -42 -31
q0 -5 10 -9.5t21 -4.5q35 0 65 41z" />
    <glyph glyph-name="ecircumflex" unicode="&#xea;" horiz-adv-x="396" 
d="M372 470q4 -12 1 -42q-4 -33 -6 -38q-6 -20 -21 -20q-25 0 -36 36l-3 13l-27 -16q-14 -8 -44 -26q-28 -18 -37 -18q-3 0 -11 4q-14 7 -20 25.5t2 28.5q15 15 82 54.5t79 39.5q13 0 25 -12t16 -29zM222 346q44 0 77 -31t33 -74q0 -42 -36 -72.5t-79 -31.5
q-25 0 -52.5 11.5t-37.5 25.5l-4 7l-8 -13q-21 -35 -21 -63q0 -15 8 -23q18 -19 46 -19q27 0 54 23q25 20 37 20t25 -11.5t16 -24.5t-1 -22t-20 -25q-39 -39 -87 -39q-16 0 -25 2q-45 6 -93 54q-51 56 -31 131q6 26 27 60.5t45 57.5q60 57 127 57zM255 249q3 5 4.5 8t1.5 5
t-1.5 3t-5.5 1q-1 0 -5 -0.5t-7 -0.5q-19 -1 -41 -12q-42 -21 -42 -31q0 -5 10 -9.5t21 -4.5q35 0 65 41z" />
    <glyph glyph-name="edieresis" unicode="&#xeb;" horiz-adv-x="391" 
d="M368 454q4 -23 -14 -54q-10 -16 -10 -21q-5 -17 -21 -17q-10 0 -20 8q-31 28 -13 71q18 48 26 52q4 2 9 2q33 0 43 -41zM203 373q-29 15 -29 48q0 16 16.5 47.5t29.5 31.5t24.5 -10.5t16.5 -26.5q7 -23 -12 -53q-13 -19 -14 -26q-5 -14 -19 -14q-9 0 -13 3zM222 346
q44 0 77 -31t33 -74q0 -42 -36 -72.5t-79 -31.5q-25 0 -52.5 11.5t-37.5 25.5l-4 7l-8 -13q-21 -35 -21 -63q0 -15 8 -23q18 -19 46 -19q27 0 54 23q25 20 37 20t25 -11.5t16 -24.5t-1 -22t-20 -25q-39 -39 -87 -39q-16 0 -25 2q-45 6 -93 54q-51 56 -31 131q6 26 27 60.5
t45 57.5q60 57 127 57zM255 249q3 5 4.5 8t1.5 5t-1.5 3t-5.5 1q-1 0 -5 -0.5t-7 -0.5q-19 -1 -41 -12q-42 -21 -42 -31q0 -5 10 -9.5t21 -4.5q35 0 65 41z" />
    <glyph glyph-name="igrave" unicode="&#xec;" horiz-adv-x="226" 
d="M183 503q9 -9 37.5 -63.5t28.5 -63.5q1 -12 -11.5 -20t-28.5 -8q-10 0 -22 5q-10 5 -17.5 16.5t-25.5 50.5q-23 51 -25.5 64t9.5 22q11 8 25 8q17 0 30 -11zM136 341q28 -3 41 -29q11 -21 -2 -57q-11 -34 -52.5 -135t-49.5 -115q-9 -17 -30 -17q-10 0 -19 4
q-16 6 -29.5 22t-13.5 30q0 15 59.5 145.5t75.5 144.5q7 7 15 7h5z" />
    <glyph glyph-name="iacute" unicode="&#xed;" horiz-adv-x="259" 
d="M260 513q11 -7 17.5 -22.5t2.5 -25.5q-5 -12 -66 -62.5t-73 -50.5q-16 0 -28 15t-12 31q0 10 4 16t20 19q106 85 123 85q4 0 12 -5zM136 341q28 -3 41 -29q11 -21 -2 -57q-11 -34 -52.5 -135t-49.5 -115q-9 -17 -30 -17q-10 0 -19 4q-16 6 -29.5 22t-13.5 30
q0 15 59.5 145.5t75.5 144.5q7 7 15 7h5z" />
    <glyph glyph-name="icircumflex" unicode="&#xee;" horiz-adv-x="253" 
d="M274 470q4 -13 0 -42q-2 -30 -5 -38q-6 -20 -21 -20q-25 0 -36 36l-4 13l-26 -16q-6 -3 -44 -26q-28 -18 -37 -18q-3 0 -11 4q-14 7 -20 25.5t2 28.5q15 15 82 54.5t79 39.5q13 0 25 -12t16 -29zM136 341q28 -3 41 -29q11 -21 -2 -57q-11 -34 -52.5 -135t-49.5 -115
q-9 -17 -30 -17q-10 0 -19 4q-16 6 -29.5 22t-13.5 30q0 15 59.5 145.5t75.5 144.5q7 7 15 7h5z" />
    <glyph glyph-name="idieresis" unicode="&#xef;" horiz-adv-x="258" 
d="M280 454q4 -23 -14 -54q-10 -15 -11 -21q-3 -17 -21 -17q-9 0 -19 8q-31 28 -14 71q21 49 27 52q4 2 9 2q33 0 43 -41zM115 373q-29 15 -29 48q0 16 16.5 47.5t29.5 31.5t24.5 -10.5t16.5 -26.5q7 -24 -13 -53q-12 -22 -13 -26q-4 -10 -8 -12q-6 -2 -11 -2q-9 0 -13 3z
M136 341q28 -3 41 -29q11 -21 -2 -57q-11 -34 -52.5 -135t-49.5 -115q-9 -17 -30 -17q-10 0 -19 4q-16 6 -29.5 22t-13.5 30q0 15 59.5 145.5t75.5 144.5q7 7 15 7h5z" />
    <glyph glyph-name="eth" unicode="&#xf0;" horiz-adv-x="319" 
d="M282 329q37 -109 37 -174q0 -77 -47 -123q-28 -29 -58 -38.5t-75 -9.5q-15 0 -29 2q-35 9 -62.5 36t-34.5 61q-12 53 15 104q8 16 31.5 39.5t42.5 35.5q18 14 50 26l30 12v8q-2 8 -8 8t-30 -6q-15 -4 -25 -4q-13 0 -22 12q-12 15 -10.5 32.5t15.5 25.5q7 5 46 17
q3 1 -14 32q-13 25 -15 33.5t3 15.5q10 13 27 13q1 0 4 -0.5t4 -0.5q40 -3 74 -54q8 -12 11.5 -16t5.5 -3q3 1 42 3.5t50 2.5q10 0 17 -4q18 -11 19.5 -37t-15.5 -31q-8 -3 -29 -5q-17 -2 -26.5 -3.5t-15.5 -3t-7.5 -3t-0.5 -3.5zM199 97q11 34 7 82q-4 42 -7 42
q-8 0 -51 -31q-28 -22 -38 -51q-10 -32 3 -57q15 -31 35 -31q18 0 31.5 13.5t19.5 32.5z" />
    <glyph glyph-name="ntilde" unicode="&#xf1;" horiz-adv-x="410" 
d="M234 375q-24 0 -36 26q-9 15 -9 30q0 19 11 35t23 16q1 0 2 -0.5t2 -0.5q7 -2 13 -12t7 -20q0 -4 1 -4q2 0 32 16q46 26 62 26q36 -3 42 -50q2 -13 -1 -24q-1 -9 -6 -17t-9 -8q-16 0 -23 25q-2 8 -4 8q-8 0 -50 -24q-41 -22 -57 -22zM375 332q31 -32 24.5 -77t-53.5 -126
q-15 -27 -45 -83q-29 -52 -34 -57q-10 -8 -22 -8q-15 0 -30 12.5t-23 26.5q-12 24 3 50q18 36 70 124q33 56 31 58q-1 2 -30 -18t-46 -35q-31 -27 -87 -92.5t-71 -93.5q-11 -23 -30 -23q-22 0 -41 18.5t-19 39.5q0 13 59 148q46 103 63 135.5t27 37.5q6 2 11 2q24 0 41 -27
q13 -21 0 -57q-7 -17 -4 -17q1 0 1 0.5t1 0.5q4 2 8 6q17 22 66.5 51t76.5 29q29 0 53 -25z" />
    <glyph glyph-name="ograve" unicode="&#xf2;" horiz-adv-x="379" 
d="M272 503q9 -8 37.5 -63t28.5 -64q1 -12 -11.5 -20t-28.5 -8q-10 0 -22 5q-10 5 -17.5 16.5t-24.5 50.5q-24 51 -26.5 64t9.5 22q11 8 25 8q17 0 30 -11zM298 286q0 -5 6 -15q16 -21 17.5 -43.5t-10.5 -58.5q-23 -70 -72.5 -128t-112.5 -58q-42 0 -72.5 30.5t-40.5 74.5
q-7 34 4.5 84t37.5 91q12 19 36 43t43 35q35 21 72 22q24 0 39 -7q18 -10 35.5 -31.5t17.5 -38.5zM216 174q26 52 26 74q1 7 -5 20t-9 13q-5 0 -23 -9q-34 -18 -60.5 -52.5t-39.5 -73.5q-18 -56 -8 -76q2 -4 7 -4q6 0 24 8q49 21 88 100z" />
    <glyph glyph-name="oacute" unicode="&#xf3;" horiz-adv-x="464" 
d="M401 513q12 -7 18.5 -22t1.5 -26q-5 -12 -66 -62.5t-73 -50.5q-16 0 -28 15t-12 31q0 10 4 16t20 19q106 85 123 85q4 0 12 -5zM298 286q0 -5 6 -15q16 -21 17.5 -43.5t-10.5 -58.5q-23 -70 -72.5 -128t-112.5 -58q-42 0 -72.5 30.5t-40.5 74.5q-7 34 4.5 84t37.5 91
q12 19 36 43t43 35q35 21 72 22q24 0 39 -7q18 -10 35.5 -31.5t17.5 -38.5zM216 174q26 52 26 74q1 7 -5 20t-9 13q-5 0 -23 -9q-34 -18 -60.5 -52.5t-39.5 -73.5q-18 -56 -8 -76q2 -4 7 -4q6 0 24 8q49 21 88 100z" />
    <glyph glyph-name="ocircumflex" unicode="&#xf4;" horiz-adv-x="388" 
d="M345 470q3 -13 0 -42q-1 -19 -5 -38q-6 -20 -21 -20q-25 0 -36 36l-4 13l-26 -16q-25 -13 -44 -26q-29 -18 -38 -18q-1 0 -11 4q-14 8 -19.5 25.5t2.5 28.5q4 9 77 51.5t83 42.5q14 0 26 -12t16 -29zM298 286q0 -5 6 -15q16 -21 17.5 -43.5t-10.5 -58.5
q-23 -70 -72.5 -128t-112.5 -58q-42 0 -72.5 30.5t-40.5 74.5q-7 34 4.5 84t37.5 91q12 19 36 43t43 35q35 21 72 22q24 0 39 -7q18 -10 35.5 -31.5t17.5 -38.5zM216 174q26 52 26 74q1 7 -5 20t-9 13q-5 0 -23 -9q-34 -18 -60.5 -52.5t-39.5 -73.5q-18 -56 -8 -76
q2 -4 7 -4q6 0 24 8q49 21 88 100z" />
    <glyph glyph-name="otilde" unicode="&#xf5;" horiz-adv-x="380" 
d="M337 437q2 -13 -1 -24q-1 -9 -6 -17t-9 -8q-14 0 -23 25q-2 8 -4 8q-8 0 -50 -24q-41 -22 -57 -22q-24 0 -36 26q-9 15 -9 30q0 18 11 34.5t23 16.5h2l2 -1q7 -2 13.5 -12.5t6.5 -19.5q0 -4 1 -4q2 0 32 16q46 26 62 26q36 -3 42 -50zM298 286q0 -5 6 -15
q16 -21 17.5 -43.5t-10.5 -58.5q-23 -70 -72.5 -128t-112.5 -58q-42 0 -72.5 30.5t-40.5 74.5q-7 34 4.5 84t37.5 91q12 19 36 43t43 35q35 21 72 22q24 0 39 -7q18 -10 35.5 -31.5t17.5 -38.5zM216 174q26 52 26 74q1 7 -5 20t-9 13q-5 0 -23 -9q-34 -18 -60.5 -52.5
t-39.5 -73.5q-18 -56 -8 -76q2 -4 7 -4q6 0 24 8q49 21 88 100z" />
    <glyph glyph-name="odieresis" unicode="&#xf6;" horiz-adv-x="392" 
d="M349 454q5 -21 -14 -54q-9 -19 -10 -21q-3 -17 -21 -17q-9 0 -19 8q-31 28 -14 71q21 49 26 52q4 2 9 2q8 0 18 -4q20 -10 25 -37zM185 373q-29 15 -29 48q0 14 14 41q11 24 17 31t15 7q12 0 24 -10.5t17 -26.5q7 -24 -13 -53q-9 -14 -14 -26q-2 -9 -7 -12q-6 -2 -11 -2
q-8 0 -13 3zM298 286q0 -5 6 -15q16 -21 17.5 -43.5t-10.5 -58.5q-23 -70 -72.5 -128t-112.5 -58q-42 0 -72.5 30.5t-40.5 74.5q-7 34 4.5 84t37.5 91q12 19 36 43t43 35q35 21 72 22q24 0 39 -7q18 -10 35.5 -31.5t17.5 -38.5zM216 174q26 52 26 74q1 7 -5 20t-9 13
q-5 0 -23 -9q-34 -18 -60.5 -52.5t-39.5 -73.5q-18 -56 -8 -76q2 -4 7 -4q6 0 24 8q49 21 88 100z" />
    <glyph glyph-name="oslash" unicode="&#xf8;" horiz-adv-x="390" 
d="M304 286q0 -6 7 -15q16 -21 17 -43.5t-10 -58.5q-20 -63 -62 -114.5t-84 -65.5q-11 -5 -36 -5h-12q-43 -78 -54 -93q-10 -14 -21 -14q-7 0 -18 6q-21 14 -21 34q0 18 43 104q-25 28 -34 67q-7 34 4.5 84t37.5 91q64 97 152 100q9 0 13 -1q51 76 65 91q11 11 21 11
q9 0 18 -8q20 -15 18 -35q-1 -17 -56 -104q12 -21 12 -31zM223 174q26 52 26 74q0 7 -6 20t-9 13q-4 0 -22 -9q-34 -16 -61 -52t-40 -74q-17 -59 -7 -76q2 -4 7 -4t24 8q47 21 88 100z" />
    <glyph glyph-name="ugrave" unicode="&#xf9;" horiz-adv-x="388" 
d="M252 353q-10 5 -17.5 16.5t-24.5 50.5q-24 51 -26.5 64t9.5 22q13 8 26 8q16 0 29 -11q9 -8 37.5 -63t29.5 -64q0 -12 -12.5 -20t-28.5 -8q-10 0 -22 5zM335 322q13 -4 24 -17t12 -25q0 -8 -30 -75q-49 -105 -66 -165q-8 -29 -13.5 -37.5t-16.5 -10.5q-26 0 -41 11
q-4 2 -5 2q-3 0 -16 -10q-41 -31 -88 -31q-31 0 -58 17.5t-37 45.5q-16 42 14 119q15 39 52 110t49 84q8 8 18 8q4 0 18 -4q25 -11 33 -33q4 -10 -5.5 -35t-55.5 -125q-34 -74 -37 -103l-1 -14l13 6q44 17 90 90.5t72 139.5q12 30 20 38q6 6 8 7.5t7 3t15 2.5q8 1 21 1h4z
" />
    <glyph glyph-name="uacute" unicode="&#xfa;" horiz-adv-x="388" 
d="M211 356q-24 15 -24 42q0 10 4 16t19 19q108 85 123 85q4 0 12 -5q12 -7 18.5 -22t1.5 -26q-5 -12 -65.5 -62.5t-73.5 -50.5q-7 0 -15 4zM335 322q13 -4 24 -17t12 -25q0 -8 -30 -75q-49 -105 -66 -165q-8 -29 -13.5 -37.5t-16.5 -10.5q-26 0 -41 11q-4 2 -5 2
q-3 0 -16 -10q-41 -31 -88 -31q-31 0 -58 17.5t-37 45.5q-16 42 14 119q15 39 52 110t49 84q8 8 18 8q4 0 18 -4q25 -11 33 -33q4 -10 -5.5 -35t-55.5 -125q-34 -74 -37 -103l-1 -14l13 6q44 17 90 90.5t72 139.5q12 30 20 38q6 6 8 7.5t7 3t15 2.5q8 1 21 1h4z" />
    <glyph glyph-name="ucircumflex" unicode="&#xfb;" horiz-adv-x="388" 
d="M185 363q-14 7 -20 25.5t2 28.5q4 9 77 51.5t84 42.5q14 0 25.5 -12t15.5 -29q3 -13 0 -42q-1 -19 -5 -38q-6 -20 -21 -20q-25 0 -36 36l-4 13l-26 -16q-6 -3 -44 -26q-29 -18 -37 -18q-3 0 -11 4zM335 322q13 -4 24 -17t12 -25q0 -8 -30 -75q-49 -105 -66 -165
q-8 -29 -13.5 -37.5t-16.5 -10.5q-26 0 -41 11q-4 2 -5 2q-3 0 -16 -10q-41 -31 -88 -31q-31 0 -58 17.5t-37 45.5q-16 42 14 119q15 39 52 110t49 84q8 8 18 8q4 0 18 -4q25 -11 33 -33q4 -10 -5.5 -35t-55.5 -125q-34 -74 -37 -103l-1 -14l13 6q44 17 90 90.5t72 139.5
q12 30 20 38q6 6 8 7.5t7 3t15 2.5q8 1 21 1h4z" />
    <glyph glyph-name="udieresis" unicode="&#xfc;" horiz-adv-x="388" 
d="M300 370q-32 28 -14 71q18 46 26 52q4 2 9 2q33 0 43 -41q4 -23 -14 -54q-8 -13 -10 -21q-5 -17 -21 -17q-9 0 -19 8zM212 370q-17 0 -29.5 16.5t-12.5 34.5q0 16 16.5 47.5t29.5 31.5t24.5 -10.5t16.5 -26.5q8 -22 -12 -53q-9 -14 -14 -26q-5 -14 -19 -14zM335 322
q13 -4 24 -17t12 -25q0 -8 -30 -75q-49 -105 -66 -165q-8 -29 -13.5 -37.5t-16.5 -10.5q-26 0 -41 11q-4 2 -5 2q-3 0 -16 -10q-41 -31 -88 -31q-31 0 -58 17.5t-37 45.5q-16 42 14 119q15 39 52 110t49 84q8 8 18 8q4 0 18 -4q25 -11 33 -33q4 -10 -5.5 -35t-55.5 -125
q-34 -74 -37 -103l-1 -14l13 6q44 17 90 90.5t72 139.5q12 30 20 38q6 6 8 7.5t7 3t15 2.5q8 1 21 1h4z" />
    <glyph glyph-name="yacute" unicode="&#xfd;" horiz-adv-x="360" 
d="M242 352q-16 0 -28 15t-12 31q0 10 4 16t20 19q106 85 123 85q4 0 12 -5q11 -7 17.5 -22.5t2.5 -25.5q-5 -12 -66 -62.5t-73 -50.5zM392 275q5 -11 1 -23q-5 -21 -48 -89q-78 -125 -142 -272q-46 -103 -58 -118q-13 -14 -23 -14q-2 0 -10 2q-11 5 -15 7q-18 13 -22 30
q-2 6 -2 9q-2 6 3.5 29.5t12.5 38.5q50 114 69 149q6 12 6 13q0 2 -15 -10q-32 -22 -56 -26q-4 -1 -12 -1q-22 0 -40 15q-47 36 -22 109q18 54 62 126t66 84q7 3 15 3q16 0 32.5 -11t20.5 -27q2 -9 -2.5 -19.5t-25.5 -42.5q-17 -26 -34.5 -56t-28 -50t-7.5 -19q11 3 120 115
q69 73 74 76q9 3 15 3q12 2 21 2q33 0 45 -33z" />
    <glyph glyph-name="ydieresis" unicode="&#xff;" horiz-adv-x="360" 
d="M319 370q-31 27 -14 71q18 46 26 52q4 2 9 2q8 0 18 -4q20 -10 25 -37q5 -21 -14 -54q-8 -13 -10 -21q-5 -17 -21 -17q-9 0 -19 8zM231 370q-17 0 -29 16.5t-12 34.5q0 17 15.5 48t29.5 31q13 0 24.5 -10.5t16.5 -26.5q8 -23 -12 -53q-9 -14 -14 -26q-5 -14 -19 -14z
M392 275q5 -11 1 -23q-5 -21 -48 -89q-78 -125 -142 -272q-46 -103 -58 -118q-13 -14 -23 -14q-2 0 -10 2q-11 5 -15 7q-18 13 -22 30q-2 6 -2 9q-2 6 3.5 29.5t12.5 38.5q50 114 69 149q6 12 6 13q0 2 -15 -10q-32 -22 -56 -26q-4 -1 -12 -1q-22 0 -40 15q-47 36 -22 109
q18 54 62 126t66 84q7 3 15 3q16 0 32.5 -11t20.5 -27q2 -9 -2.5 -19.5t-25.5 -42.5q-17 -26 -34.5 -56t-28 -50t-7.5 -19q11 3 120 115q69 73 74 76q9 3 15 3q12 2 21 2q33 0 45 -33z" />
    <glyph glyph-name="dotlessi" unicode="&#x131;" horiz-adv-x="206" 
d="M134 287q7 5 16 5q18 0 34 -18q17 -19 10 -44q-8 -28 -53 -128.5t-55 -112.5q-7 -8 -21 -8q-20 0 -36.5 15.5t-18.5 35.5q-1 11 7.5 30t44.5 93q60 123 72 132z" />
    <glyph glyph-name="OE" unicode="&#x152;" horiz-adv-x="723" 
d="M771 496q12 -11 14.5 -29.5t-7.5 -31.5l-5 -7l-59 -2q-53 0 -113 -2h-56l-45 -92l34 1q6 0 15 0.5t13 0.5q33 0 44 -11q11 -12 12.5 -29.5t-7.5 -28.5q-4 -5 -10 -6t-34 -3q-13 -1 -41 -2.5t-35 -1.5l-37 -1l-19 -40q-8 -20 -18 -40q-16 -37 -21 -68q-5 -33 7 -33
q27 0 69 21q28 15 100 65q20 15 27 17q6 2 9 2q14 0 27.5 -13.5t13.5 -29.5q0 -27 -80 -79q-83 -54 -148 -54q-24 0 -49.5 14.5t-39.5 35.5q-59 -62 -122 -62q-62 0 -115 51q-28 26 -38.5 52t-10.5 66q0 43 18 87q8 23 6 32q-6 19 5 67q10 43 27.5 71t50.5 54q70 57 146 57
q68 0 117 -49q2 -2 3 -4q3 17 14 22q34 17 216 17h34q73 0 88 -14zM216 82q35 17 72 70t60 103l-2 2q-9 10 -11.5 24.5t2.5 24.5q4 8 17 11q9 4 18 4q11 36 11 61q0 42 -40 48q-48 0 -77 -14l-16 -8l7 -14q10 -18 7 -27t-25 -32q-26 -27 -54 -73.5t-41 -84.5q-14 -43 -7 -73
q4 -19 16 -25t33 -6q17 2 30 9z" />
    <glyph glyph-name="oe" unicode="&#x153;" horiz-adv-x="556" 
d="M425 346q44 0 76.5 -30.5t32.5 -74.5q0 -43 -35.5 -73t-79.5 -31q-25 0 -52.5 11.5t-36.5 25.5l-5 7l-8 -13q-19 -32 -21 -63q0 -20 16 -31t38 -11q27 0 54 23q25 20 37 20t25 -11.5t16 -24.5q6 -20 -20 -47q-40 -39 -87 -39q-16 0 -25 2q-48 5 -93 54q-4 4 -10 12
q-58 -69 -121 -69q-42 0 -72.5 30.5t-40.5 74.5q-7 34 4.5 84t37.5 91q12 19 36 43t43 35q35 21 72 22q24 0 39 -7q18 -10 34.5 -29.5t17.5 -37.5q60 57 128 57zM128 74q49 21 88 100q26 52 26 74q1 7 -5 20t-9 13q-5 0 -23 -9q-34 -18 -60.5 -52.5t-39.5 -73.5
q-18 -56 -8 -76q2 -4 7 -4q6 0 24 8zM457 249q3 5 4.5 8t2 5t-1.5 3t-5 1q-1 0 -5 -0.5t-7 -0.5q-20 -1 -41 -12q-43 -21 -43 -31q0 -5 10 -9.5t21 -4.5q35 0 65 41z" />
    <glyph glyph-name="Scaron" unicode="&#x160;" horiz-adv-x="477" 
d="M488 677q14 -8 20 -25t-2 -28q-5 -10 -77 -52t-83 -42q-14 0 -26 11.5t-16 28.5q-2 14 0 42q1 19 5 38q6 20 21 20q25 0 36 -35l4 -13l26 15q35 21 44 27q29 18 37 18q4 0 11 -5zM345 514q94 0 126 -71q34 -74 -30 -138q-16 -16 -23 -16h-3q-14 3 -22.5 18.5t-7.5 33.5
q1 15 12 29q16 22 17.5 27t-8.5 10q-18 8 -47 8q-46 0 -95.5 -22.5t-72.5 -57.5q-4 -7 0 -12q5 -5 33 -20q6 -4 22.5 -14t22.5 -14q18 -12 41 -35t32 -37q42 -64 13 -125q-17 -42 -76 -64.5t-113 -22.5q-59 0 -105.5 28t-49.5 83q-1 20 7 37q31 62 65 62q15 -2 26 -17
t11 -33q0 -11 -11 -26q-23 -25 -19 -29q22 -5 39 -5q60 0 114 27q14 7 27 18t13 16t-21 22.5t-40 29.5q-54 32 -81.5 63.5t-27.5 80.5q0 25 4.5 38t18.5 32q31 42 92 69t117 27z" />
    <glyph glyph-name="scaron" unicode="&#x161;" horiz-adv-x="357" 
d="M325 507q14 -7 20 -25.5t-2 -28.5q-7 -7 -24 -17q-114 -77 -137 -77q-14 0 -25.5 12t-15.5 29q-4 12 -1 42q4 33 6 38q6 20 21 20q25 0 36 -36l3 -13l27 16q6 3 44 26q28 18 37 18q3 0 11 -4zM214 350q36 0 65.5 -22t35.5 -56q4 -22 -5.5 -41.5t-23.5 -19.5q-16 0 -25 21
q-8 17 -3 29q2 5 -5 7q-6 3 -22 3q-27 0 -58 -11.5t-50 -29.5q-4 -4 -6.5 -7t-3 -4t0.5 -2q1 0 4.5 -1l10.5 -3t12 -3q86 -22 106 -78q11 -34 -3 -67q-19 -38 -71 -60.5t-100 -22.5q-44 0 -77 21.5t-34 62.5q-2 48 26 48q13 0 24.5 -13t11.5 -28q0 -9 5 -10q3 -1 13 -1
q38 0 75 14q13 5 28.5 14.5t25 18.5t6.5 12q-9 6 -54 16q-43 11 -65 30.5t-22 57.5q0 22 6 33q23 40 73.5 66t98.5 26z" />
    <glyph glyph-name="Ydieresis" unicode="&#x178;" horiz-adv-x="387" 
d="M384 552q-31 26 -14 71q20 45 26 52q4 2 9 2q8 0 18 -4q20 -12 25 -38q5 -21 -14 -53q-9 -18 -10 -21q-3 -17 -20 -17q-12 0 -20 8zM284 554q-29 16 -29 48q0 14 14 41q11 25 17 32t15 7q12 0 24 -11t17 -27q7 -23 -13 -53q-10 -15 -14 -25q-2 -9 -7 -12q-4 -3 -11 -3
q-9 0 -13 3zM400 498q16 -2 29 -17.5t13 -31.5q0 -20 -49 -116q-97 -190 -136 -284q-18 -45 -22 -51q-8 -11 -26 -11q-10 0 -23 5q-14 8 -26 24t-12 29q0 4 19 49t30 66q4 8 6.5 13.5t1.5 5.5q0 1 -2 0.5t-5 -1.5q-13 -5 -27 -5q-43 0 -75 34q-40 40 -23 104q11 43 53 124
t71 81q16 0 29.5 -15t13.5 -31q0 -12 -14 -34q-23 -34 -47 -90t-29 -85l-2 -10l7 2q32 9 87 65t92 119q36 61 66 61z" />
    <glyph glyph-name="Zcaron" unicode="&#x17d;" horiz-adv-x="427" 
d="M325 530q-14 0 -26 11.5t-16 28.5q-2 14 0 42q1 19 5 38q6 20 21 20q25 0 36 -35l4 -13l26 15q35 21 44 27q29 18 37 18q4 0 11 -5q14 -8 20 -25t-2 -28q-5 -10 -77 -52t-83 -42zM484 482q12 -22 1 -45q-5 -9 -41.5 -45t-81.5 -74q-80 -69 -157 -141q-81 -76 -74 -76
q2 0 37 7q60 10 110 10q26 -4 40.5 -20t14.5 -41q0 -16 -6 -23q-7 -8 -19.5 -10.5t-57.5 -6.5q-70 -5 -139 -18q-60 -12 -72 -12q-8 0 -18 4q-11 5 -26 20t-17 24q-6 18 7 43q56 104 308 309l45 37q-31 0 -46 -1q-36 -3 -67 -3q-23 0 -33 7q-13 9 -19 28.5t1 32.5
q5 10 23.5 14.5t75.5 10.5q106 10 141 10q24 0 34 -5t21 -16t15 -20z" />
    <glyph glyph-name="zcaron" unicode="&#x17e;" horiz-adv-x="409" 
d="M233 359q-13 0 -25 12t-16 29q-3 17 0 42q2 30 5 38q6 20 21 20q25 0 36 -36l4 -13l26 16q6 3 44 26q29 18 37 18q3 0 11 -4q14 -7 20 -25t-2 -29q-7 -7 -24 -17q-112 -77 -137 -77zM338 352q28 0 44 -16.5t16 -45.5q0 -19 -12 -31.5t-66 -48.5q-45 -32 -50 -36
q-12 -9 -35 -28.5t-40.5 -34.5t-16.5 -16t28 4q65 10 93 10q30 0 46 -8q18 -9 27 -29t2 -36q-4 -9 -9.5 -12.5t-19.5 -5.5q-81 -9 -127 -16q-83 -14 -133 -31q-33 -12 -51 -12q-16 0 -29.5 12.5t-19.5 27.5q-8 23 1 38q8 16 62 70t115 106q34 29 34 31h-3q-2 -1 -7 -1.5
t-9 -0.5q-14 -2 -17 -2q-11 0 -21 9q-18 13 -18 39q0 12 8 20q17 17 91.5 30.5t116.5 13.5z" />
    <glyph glyph-name="endash" unicode="&#x2013;" horiz-adv-x="344" 
d="M80 297q135 19 216 19q10 0 17 -3q13 -8 18.5 -27.5t-1.5 -34.5q-3 -8 -10 -15q-6 -5 -17 -5q-74 0 -186 -11q-55 -5 -62 -5l-22 -2l-10 10q-17 17 -12 43q2 13 14 18.5t55 12.5z" />
    <glyph glyph-name="emdash" unicode="&#x2014;" horiz-adv-x="385" 
d="M28 232q-12 8 -16.5 26.5t2.5 32.5q8 13 43 18q47 6 221 8q69 0 78 -5q18 -11 19 -41t-16 -41q-8 -4 -165 -4l-158 1z" />
    <glyph glyph-name="quoteleft" unicode="&#x2018;" horiz-adv-x="187" 
d="M80 310q-24 0 -43.5 24t-24.5 50q-13 62 70 145q37 37 51 37q1 0 2.5 -0.5t2.5 -0.5q16 -3 27 -15t12 -27q1 -10 -1 -14t-15 -19q-69 -78 -75 -115q-1 -9 7 -20q15 -23 5 -38q-7 -7 -18 -7z" />
    <glyph glyph-name="quoteright" unicode="&#x2019;" horiz-adv-x="169" 
d="M10 371q0 17 38 59q40 42 40 62q0 7 -5 15q-9 17 -6.5 30.5t14.5 15.5q25 0 43.5 -22.5t23.5 -49.5q6 -31 -14.5 -70t-61.5 -72q-20 -16 -29 -16t-14 3q-29 15 -29 45z" />
    <glyph glyph-name="quotesinglbase" unicode="&#x201a;" horiz-adv-x="159" 
d="M140 57q15 -32 5 -66q-8 -20 -39 -58.5t-47 -38.5q-5 0 -12 3q-18 6 -29 23q-8 10 -8 25q0 11 2 15.5t16 19.5q37 42 43 56q3 8 -4 16q-13 13 -15 26.5t6 21.5q6 6 16 6q16 0 36 -14.5t30 -34.5z" />
    <glyph glyph-name="quotedblleft" unicode="&#x201c;" horiz-adv-x="349" 
d="M80 310q-24 0 -43.5 24t-24.5 50q-13 62 70 145q37 37 51 37q1 0 2.5 -0.5t2.5 -0.5q16 -3 27 -15t12 -27q1 -10 -1 -14t-15 -19q-69 -78 -75 -115q-1 -9 7 -20q15 -23 5 -38q-7 -7 -18 -7zM254 349q11 -18 6 -31t-21 -13q-10 0 -19 5q-23 12 -38 40t-13 57q3 33 42 86
q58 78 85 78q16 0 29.5 -14.5t13.5 -30.5q0 -11 -15 -26q-15 -17 -41.5 -53t-32.5 -48q-4 -7 -6.5 -16.5t-2 -16t2.5 -6.5q3 0 10 -11z" />
    <glyph glyph-name="quotedblright" unicode="&#x201d;" horiz-adv-x="289" 
d="M10 371q0 17 38 59q40 42 40 62q0 7 -5 15q-9 17 -6.5 30.5t14.5 15.5q25 0 43.5 -22.5t23.5 -49.5q6 -31 -14.5 -70t-61.5 -72q-20 -16 -29 -16t-14 3q-29 15 -29 45zM176 385q15 21 22 36q13 31 -6 71q-17 33 -4 44q6 5 15 5q21 0 43.5 -27.5t29.5 -64.5q8 -37 -4 -69
q-10 -24 -27.5 -50t-35.5 -26q-4 0 -7 1q-20 7 -32.5 22.5t-9.5 30.5q2 8 16 27z" />
    <glyph glyph-name="quotedblbase" unicode="&#x201e;" horiz-adv-x="289" 
d="M10 -49q0 18 38 58q40 43 40 62q0 8 -5 16q-9 17 -6.5 30t14.5 15q25 0 43.5 -22t23.5 -49q6 -32 -14.5 -70.5t-61.5 -72.5q-18 -15 -29 -15q-8 0 -14 2q-29 17 -29 46zM176 -35q14 18 22 35q13 31 -6 71q-18 34 -4 45q7 5 15 5q21 0 43.5 -27.5t29.5 -64.5q8 -37 -4 -69
q-6 -13 -19.5 -36t-21.5 -31q-11 -9 -21 -9q-5 0 -8 1q-20 6 -32.5 22t-9.5 31q2 8 16 27z" />
    <glyph glyph-name="dagger" unicode="&#x2020;" horiz-adv-x="388" 
d="M374 322q-6 -12 -17.5 -14.5t-65.5 -2.5h-65l-24 -51q-28 -58 -50 -107.5t-33 -74.5t-18.5 -44t-11 -25.5t-6.5 -7.5q-6 -3 -15 -3q-10 0 -19 3q-10 4 -22 16q-21 21 -16 42q9 23 57 117q13 27 26.5 61t20.5 55t7 22t-24 1q-31 1 -43.5 5.5t-20.5 19.5q-13 28 2 43
q7 7 62 10q18 0 29 1l39 2l9 18q35 65 50.5 87t25.5 22q14 0 27 -13t14 -29q1 -17 -15 -55l-10 -24q2 -1 5 -1q1 0 5 0.5t6 0.5q5 1 19 1q16 0 23 -1q36 -2 46 -23q5 -10 6 -26.5t-3 -24.5z" />
    <glyph glyph-name="bullet" unicode="&#x2022;" horiz-adv-x="178" 
d="M158 297q11 -23 10 -45q-2 -22 -9 -29t-40 -25t-40 -18q-9 0 -21 7q-48 25 -48 82q0 23 10 33q8 10 40 23.5t45 13.5q32 0 53 -42z" />
    <glyph glyph-name="ellipsis" unicode="&#x2026;" horiz-adv-x="377" 
d="M67 88q19 0 32 -25q6 -13 6 -27q-2 -13 -5 -18q-5 -5 -25 -15t-24 -10q-17 0 -29 17.5t-12 35.5q0 14 6 20q5 5 24.5 13.5t26.5 8.5zM198 88q19 0 32 -25q7 -13 6 -27q-2 -13 -5 -18q-5 -5 -25 -15t-24 -10q-17 0 -29 17.5t-12 35.5q0 14 6 20q5 5 24.5 13.5t26.5 8.5z
M361 63q7 -13 6 -27q-2 -13 -5 -18q-5 -5 -25 -15t-24 -10q-17 0 -29 17.5t-12 35.5q0 14 6 20q5 5 24.5 13.5t26.5 8.5q19 0 32 -25z" />
    <glyph glyph-name="guilsinglleft" unicode="&#x2039;" horiz-adv-x="340" 
d="M318 343q-12 -12 -122 -68l-45 -24l10 -4q40 -16 56 -28q14 -10 19 -34t-3 -38q-7 -9 -10 -10q-2 -1 -9 -1q-14 0 -25 7q-103 49 -142 62q-27 9 -34 35q-11 36 18 53q35 21 141.5 72.5t124.5 51.5q17 0 26 -18q18 -35 -5 -56z" />
    <glyph glyph-name="guilsinglright" unicode="&#x203a;" horiz-adv-x="382" 
d="M93 143q-22 -9 -35 -15q-8 -5 -15 -5q-5 0 -8 1q-13 6 -20.5 23.5t-3.5 32.5q4 12 9 17q9 10 67.5 37.5t110.5 45.5l38 13l-40 16q-45 17 -55.5 22.5t-16.5 14.5q-13 21 -7 41t25 20q23 -1 73.5 -17.5t94.5 -38.5q37 -18 46.5 -26t13.5 -23q3 -11 1 -29t-7 -25
q-4 -8 -41 -19q-74 -22 -160 -57q-29 -13 -70 -29z" />
    <glyph glyph-name="Euro" unicode="&#x20ac;" horiz-adv-x="456" 
d="M39 268q-12 3 -20.5 16t-8.5 29t12.5 23.5t50.5 15.5l23 4l15 20q44 58 104.5 99.5t121.5 41.5q32 0 45 -6q45 -21 60 -62q9 -30 2 -57q-4 -17 -20 -17q-12 0 -24 12t-13 30q0 12 -7 14q-2 1 -9 1q-28 0 -57 -11q-13 -5 -39 -22t-34 -25l-5 -6l21 -1q32 -2 44 -22
q9 -16 6.5 -34t-15.5 -23q-4 -2 -49 -6q-86 -6 -87 -10q3 -2 6 -3q28 0 43 -7t22 -31q9 -30 -10 -43q-8 -5 -53 -6q-47 -3 -49 -6q-7 -10 -5 -46q0 -21 9.5 -33.5t24.5 -12.5q10 0 18 4q35 14 89 79q13 16 17.5 19t14.5 3q17 0 31.5 -12t14.5 -28q0 -9 -30 -54
q-56 -84 -133 -84q-14 0 -34 4q-29 8 -57 29t-40 45q-17 34 -14 79q2 34 2 50q-2 34 10 34q2 0 7 5t5 7t-6 4z" />
    <glyph glyph-name="minus" unicode="&#x2212;" horiz-adv-x="344" 
d="M80 297q135 19 216 19q10 0 17 -3q13 -8 18.5 -27.5t-1.5 -34.5q-3 -8 -10 -15q-6 -5 -17 -5q-74 0 -186 -11q-55 -5 -62 -5l-22 -2l-10 10q-17 17 -12 43q2 13 14 18.5t55 12.5z" />
    <glyph glyph-name="ampersand.01" horiz-adv-x="440" 
d="M141 268q17 11 21.5 15t3.5 7t-5 33q-8 80 27 130q22 31 57.5 50t73.5 19t67 -20.5t39 -56.5q14 -46 -14.5 -89t-108.5 -95l-34 -23q-1 0 0 -3l3 -9l4 -11l23 13q38 23 65 23q13 -3 26 -18t14 -29q0 -15 -19 -28q-3 -2 -18.5 -12t-23.5 -16q-29 -20 -31 -22t9 -29
q25 -63 25 -80q0 -25 -12 -31q-10 -4 -19 -4q-4 0 -12 2q-38 12 -59 67q-10 23 -11 23l-10 -6q-45 -27 -77 -36q-13 -3 -29 -3q-51 0 -82 33q-24 28 -24 60q0 19 9 36q22 46 122 110zM250 353q0 -11 1 -11q5 0 29 19q8 5 21 15t15 12q10 9 22 23t12 17q0 2 -7 2
q-1 0 -4.5 -0.5t-6.5 -0.5q-32 -2 -55.5 -24t-26.5 -52zM191 192q-8 0 -53.5 -36.5t-45.5 -45.5q0 -3 27 9q33 12 80 45q4 1 -1 15q-6 13 -7 13z" />
    </font>
</defs>
</svg>
